<svg id="圖層_1" data-name="圖層 1" xmlns="http://www.w3.org/2000/svg" xmlns:xlink="http://www.w3.org/1999/xlink" viewBox="0 0 141.48 80.04">
  <defs>
    <style>
      .cls-1, .cls-2, .cls-3 {
        fill: none;
      }

      .cls-2 {
        clip-rule: evenodd;
      }

      .cls-10, .cls-11, .cls-12, .cls-13, .cls-14, .cls-20, .cls-3, .cls-4, .cls-5, .cls-6, .cls-7, .cls-8, .cls-9 {
        fill-rule: evenodd;
      }

      .cls-4 {
        fill: #7f7f7f;
      }

      .cls-5 {
        fill: #4d4d4e;
      }

      .cls-6 {
        fill: #bd8e63;
      }

      .cls-7 {
        fill: #f5f5f5;
      }

      .cls-8 {
        fill: #a46843;
      }

      .cls-9 {
        fill: #b8b9b9;
      }

      .cls-10 {
        fill: #dbc07e;
      }

      .cls-11 {
        fill: #c7b074;
      }

      .cls-12 {
        fill: #7d7571;
      }

      .cls-13 {
        fill: #554a47;
      }

      .cls-14 {
        fill: #5e524e;
      }

      .cls-15 {
        clip-path: url(#clip-path);
      }

      .cls-16 {
        font-size: 24px;
        fill: #fff;
        font-family: Arial-Black, Arial;
        font-weight: 800;
      }

      .cls-17 {
        letter-spacing: 0em;
      }

      .cls-18 {
        clip-path: url(#clip-path-2);
      }

      .cls-19 {
        letter-spacing: 0em;
      }

      .cls-20 {
        fill: #4a423f;
      }
    </style>
    <clipPath id="clip-path" transform="translate(-5.56 -5.89)">
      <rect class="cls-1" x="5.56" y="5.89" width="141.48" height="80.04"/>
    </clipPath>
    <clipPath id="clip-path-2" transform="translate(-5.56 -5.89)">
      <polygon class="cls-2" points="5.56 85.93 147.04 85.93 147.04 5.89 5.56 5.89 5.56 85.93 5.56 85.93"/>
    </clipPath>
  </defs>
  <title>clock1605</title>
  <g>
    <polygon class="cls-4" points="141.48 73.2 141.48 73.2 141.48 73.47 141.41 73.76 141.28 74.03 141.15 74.26 140.95 74.52 140.72 74.75 140.46 75.02 140.16 75.25 139.83 75.48 139.44 75.65 138.51 76.08 137.53 76.5 136.31 76.83 134.96 77.17 133.51 77.46 131.86 77.76 130.11 78.03 128.24 78.26 126.19 78.49 124.08 78.72 121.78 78.92 119.41 79.05 116.87 79.21 111.53 79.48 105.73 79.68 99.5 79.81 92.91 79.94 85.93 80.01 78.68 80.04 71.04 80.04 71.04 80.04 63.42 80.04 56.14 80.01 49.13 79.94 42.5 79.81 36.24 79.68 30.41 79.48 24.98 79.21 22.44 79.05 20 78.92 17.69 78.72 15.55 78.49 13.48 78.26 11.56 78.03 9.79 77.76 8.11 77.46 6.62 77.17 5.27 76.83 4.05 76.5 3 76.08 2.08 75.65 1.68 75.48 1.35 75.25 1.02 75.02 0.76 74.75 0.53 74.52 0.33 74.26 0.2 74.03 0.07 73.76 0 73.47 0 73.2 0 73.2 0 72.9 0.07 72.64 0.2 72.38 0.33 72.14 0.53 71.88 0.76 71.65 1.02 71.45 1.35 71.22 1.68 70.99 2.08 70.79 3 70.43 4.05 70.03 5.27 69.73 6.62 69.44 8.11 69.14 9.79 68.91 11.56 68.67 13.48 68.48 15.55 68.31 17.69 68.11 20 68.01 24.98 67.78 30.41 67.58 36.24 67.48 42.5 67.39 49.13 67.35 56.14 67.32 71.04 67.32 71.04 67.32 85.93 67.32 92.91 67.35 99.5 67.39 105.73 67.48 111.53 67.58 116.87 67.78 121.78 68.01 124.08 68.11 126.19 68.31 128.24 68.48 130.11 68.67 131.86 68.91 133.51 69.14 134.96 69.44 136.31 69.73 137.53 70.03 138.51 70.43 139.44 70.79 139.83 70.99 140.16 71.22 140.46 71.45 140.72 71.65 140.95 71.88 141.15 72.14 141.28 72.38 141.41 72.64 141.48 72.9 141.48 73.2 141.48 73.2 141.48 73.2 141.48 73.2"/>
    <polygon class="cls-5" points="13.5 73.68 9.06 73.68 8.04 68.04 14.52 68.04 13.5 73.68 13.5 73.68 13.5 73.68"/>
    <polygon class="cls-5" points="132.66 73.68 128.22 73.68 127.2 68.04 133.68 68.04 132.66 73.68 132.66 73.68 132.66 73.68"/>
    <polygon class="cls-6" points="0.12 3.84 141.48 3.84 141.48 70.44 0.12 70.44 0.12 3.84 0.12 3.84"/>
    <polygon class="cls-7" points="6.84 10.68 134.64 10.68 134.64 63.6 6.84 63.6 6.84 10.68 6.84 10.68"/>
    <polygon class="cls-8" points="130.38 0 11.29 0 0.12 3.84 141.48 3.84 130.38 0 130.38 0 130.38 0"/>
    <path class="cls-9" d="M140,16.57H12.4V69.49H140.2V16.57ZM13.45,68.77V17.43H139.11V68.77Z" transform="translate(-5.56 -5.89)"/>
    <polygon class="cls-10" points="140.08 5.29 140.28 5.07 140.28 5.07 129.45 5.33 118.61 5.48 107.78 5.63 97.08 5.7 86.55 5.74 76.24 5.78 66.26 5.74 56.62 5.7 38.8 5.52 23.29 5.33 10.55 5.11 1.2 4.92 1.4 5.14 1.4 5.14 14.7 5.4 34.23 5.67 45.81 5.78 58.33 5.89 71.63 5.96 85.49 6 85.49 6 100.01 5.96 112.95 5.81 125.83 5.63 140.08 5.29 140.08 5.29 140.08 5.29 140.08 5.29"/>
    <polygon class="cls-10" points="138.86 6.47 138.96 6.37 138.96 6.37 128.46 6.56 117.86 6.69 107.39 6.82 96.98 6.89 86.74 6.92 76.77 6.95 67.08 6.92 57.7 6.89 40.28 6.72 24.98 6.59 12.2 6.4 2.52 6.24 2.62 6.37 2.62 6.37 16.28 6.59 35.58 6.82 46.9 6.92 59.09 6.98 72.06 7.01 85.49 7.08 85.49 7.08 99.68 7.01 112.32 6.92 124.9 6.76 138.86 6.47 138.86 6.47 138.86 6.47 138.86 6.47"/>
    <polygon class="cls-10" points="137.32 8.11 137.52 7.96 137.52 7.96 127.27 8.11 117.03 8.27 106.88 8.36 96.8 8.39 86.92 8.45 77.26 8.48 67.84 8.45 58.78 8.39 41.78 8.3 26.73 8.11 13.97 7.99 3.96 7.8 4.16 8.02 4.16 8.02 18.06 8.2 37.1 8.39 48.17 8.52 60.03 8.58 72.49 8.61 85.5 8.64 85.5 8.64 99.27 8.61 111.53 8.52 123.68 8.36 137.32 8.11 137.32 8.11 137.32 8.11 137.32 8.11"/>
    <polygon class="cls-10" points="5.52 9.36 5.59 9.39 5.59 9.39 19.68 9.62 38.45 9.85 49.24 9.92 60.77 10.02 72.85 10.05 85.43 10.08 85.43 10.08 98.83 10.05 110.69 9.95 122.47 9.82 135.77 9.56 135.84 9.49 135.84 9.49 125.9 9.65 115.95 9.82 106.17 9.88 96.43 9.95 86.88 10.02 77.56 10.02 59.72 9.95 43.22 9.85 28.47 9.69 15.79 9.52 5.52 9.36 5.52 9.36 5.52 9.36 5.52 9.36"/>
    <polygon class="cls-10" points="1.31 69.31 1.08 69.48 1.08 69.48 11.96 69.31 22.83 69.14 33.67 69.02 44.42 68.96 55 68.93 65.28 68.93 75.33 68.96 84.95 68.99 102.82 69.14 118.41 69.25 131.13 69.43 140.52 69.6 140.32 69.4 140.32 69.4 128.39 69.22 112.05 69.02 102.16 68.93 91.05 68.85 78.76 68.79 65.25 68.76 65.25 68.76 49.3 68.79 33.11 68.91 25.04 68.96 17.03 69.08 9.09 69.17 1.31 69.31 1.31 69.31 1.31 69.31 1.31 69.31"/>
    <polygon class="cls-10" points="2.53 68.05 2.4 68.17 2.4 68.17 12.98 67.99 23.55 67.85 34.06 67.76 44.48 67.67 54.75 67.65 64.74 67.65 74.49 67.65 83.85 67.7 101.31 67.82 116.7 67.99 129.45 68.14 139.2 68.28 139.03 68.14 139.03 68.14 126.84 67.99 110.67 67.79 101.01 67.67 90.24 67.62 78.34 67.56 65.23 67.56 65.23 67.56 49.58 67.56 33.73 67.65 25.83 67.7 17.98 67.82 10.18 67.91 2.53 68.05 2.53 68.05 2.53 68.05 2.53 68.05"/>
    <polygon class="cls-10" points="4.16 66.55 3.96 66.74 3.96 66.74 14.27 66.55 24.49 66.42 34.7 66.29 44.75 66.23 54.67 66.19 64.39 66.19 73.78 66.19 82.87 66.23 99.87 66.36 114.96 66.52 127.74 66.71 137.76 66.84 137.59 66.68 137.59 66.68 125.08 66.48 109.16 66.26 99.8 66.16 89.39 66.06 77.93 66 65.31 66 65.31 66 50.05 66.03 34.63 66.1 19.25 66.29 11.67 66.42 4.16 66.55 4.16 66.55 4.16 66.55 4.16 66.55"/>
    <polygon class="cls-10" points="136.08 65.28 136.01 65.21 136.01 65.21 123.33 65.01 107.72 64.77 98.6 64.66 88.52 64.59 77.45 64.56 65.23 64.56 65.23 64.56 50.38 64.56 35.33 64.66 20.31 64.83 12.9 64.94 5.59 65.11 5.52 65.14 5.52 65.14 15.47 64.97 25.41 64.83 35.26 64.7 44.98 64.63 54.56 64.63 63.88 64.59 81.77 64.66 98.3 64.77 113.09 64.94 125.8 65.14 136.08 65.28 136.08 65.28 136.08 65.28 136.08 65.28"/>
    <polygon class="cls-10" points="1.41 69.36 1.2 69.36 1.2 69.36 1.23 26.37 1.23 5.16 1.44 5.16 1.44 5.16 1.44 26.37 1.41 69.36 1.41 69.36 1.41 69.36 1.41 69.36"/>
    <polygon class="cls-10" points="2.51 68.28 2.4 68.28 2.4 68.28 2.58 62.67 2.76 57.1 2.87 51.55 2.9 46.14 2.94 40.83 3.01 35.75 2.9 26.32 2.83 18.3 2.72 12 2.54 6.36 2.69 6.36 2.69 6.36 2.83 12 2.94 18.3 3.08 26.32 3.12 35.75 3.12 40.83 3.08 46.14 3.01 51.55 2.87 57.1 2.72 62.7 2.51 68.28 2.51 68.28 2.51 68.28 2.51 68.28"/>
    <polygon class="cls-10" points="4.24 66.6 4.08 66.57 4.08 66.57 4.27 62.71 4.46 58.52 4.58 53.97 4.64 49.28 4.64 44.47 4.64 39.59 4.64 34.8 4.58 30.15 4.42 21.54 4.27 14.55 4.08 7.95 4.24 7.92 4.24 7.92 4.46 14.55 4.61 21.54 4.74 30.15 4.8 34.8 4.8 39.59 4.8 44.47 4.8 49.32 4.74 54.03 4.64 58.52 4.46 62.71 4.24 66.6 4.24 66.6 4.24 66.6 4.24 66.6"/>
    <polygon class="cls-10" points="5.56 65.16 5.52 65.16 5.52 65.16 5.6 54.49 5.72 44.35 5.72 35 5.68 26.64 5.56 14.25 5.52 9.48 5.6 9.48 5.6 9.48 5.68 14.25 5.76 26.64 5.76 35 5.76 44.35 5.72 54.49 5.56 65.16 5.56 65.16 5.56 65.16 5.56 65.16"/>
    <polygon class="cls-10" points="140.27 69.36 140.52 69.36 140.52 69.36 140.41 5.16 140.16 5.16 140.16 5.16 140.27 69.36 140.27 69.36 140.27 69.36 140.27 69.36"/>
    <polygon class="cls-10" points="139.16 68.28 139.32 68.28 139.32 68.28 139.12 62.68 138.96 57.11 138.86 51.57 138.8 46.17 138.73 40.86 138.73 35.76 138.8 26.33 138.9 18.29 138.99 11.99 139.16 6.36 138.99 6.43 138.99 6.43 138.9 12.06 138.73 18.36 138.66 26.36 138.6 35.79 138.63 40.86 138.66 46.17 138.73 51.57 138.83 57.11 138.96 62.71 139.16 68.28 139.16 68.28 139.16 68.28 139.16 68.28"/>
    <polygon class="cls-10" points="137.59 66.6 137.76 66.57 137.76 66.57 137.53 62.71 137.36 58.52 137.26 53.97 137.16 49.25 137.12 44.4 137.12 39.52 137.16 34.7 137.19 30.01 137.36 21.4 137.56 14.31 137.73 7.68 137.56 7.91 137.56 7.91 137.36 14.54 137.16 21.54 137.02 30.15 136.99 34.8 136.92 39.58 136.92 44.46 136.99 49.31 137.05 54.03 137.16 58.52 137.32 62.71 137.59 66.6 137.59 66.6 137.59 66.6 137.59 66.6"/>
    <polygon class="cls-10" points="136.13 65.16 136.2 65.16 136.2 65.16 136.06 54.49 136.03 44.35 136.03 35 136.03 26.64 136.13 14.25 136.2 9.48 136.13 9.48 136.13 9.48 136.06 14.25 135.99 26.64 135.96 35 135.96 44.35 135.99 54.49 136.13 65.16 136.13 65.16 136.13 65.16 136.13 65.16"/>
    <polygon class="cls-11" points="6.85 63.71 6.85 63.48 0.12 70.21 0.12 70.44 0.35 70.44 7.08 63.71 6.85 63.71 6.85 63.71 6.85 63.71"/>
    <polygon class="cls-11" points="0.12 4.07 6.85 10.92 6.85 10.69 7.08 10.69 0.35 3.84 0.12 3.84 0.12 4.07 0.12 4.07 0.12 4.07"/>
    <polygon class="cls-11" points="141.25 3.84 134.52 10.69 134.75 10.69 134.75 10.92 141.48 4.07 141.48 3.84 141.25 3.84 141.25 3.84 141.25 3.84"/>
    <polygon class="cls-11" points="134.75 63.48 134.75 63.71 134.52 63.71 141.25 70.44 141.48 70.44 141.48 70.21 134.75 63.48 134.75 63.48 134.75 63.48"/>
    <polygon class="cls-12" points="10.44 57.02 10.44 57.02 10.44 57.54 10.51 58.04 10.67 58.54 10.8 58.97 11.03 59.43 11.26 59.86 11.56 60.22 11.89 60.55 12.22 60.92 12.61 61.21 13.01 61.45 13.47 61.64 13.89 61.81 14.39 61.97 14.88 62.04 15.41 62.04 64.87 62.04 64.87 62.04 65.33 62.04 65.86 61.97 66.32 61.81 66.81 61.64 67.21 61.45 67.64 61.21 68 60.92 68.36 60.55 68.72 60.22 68.98 59.86 69.25 59.43 69.41 58.97 69.61 58.54 69.71 58.04 69.81 57.54 69.84 57.02 69.84 38.04 10.44 38.04 10.44 57.02 10.44 57.02 10.44 57.02"/>
    <polygon class="cls-13" points="64.87 13.2 15.41 13.2 15.41 13.2 14.88 13.23 14.39 13.3 13.89 13.4 13.47 13.6 13.01 13.83 12.61 14.06 12.22 14.35 11.89 14.68 11.56 15.04 11.26 15.41 11.03 15.84 10.8 16.26 10.67 16.73 10.51 17.22 10.44 17.71 10.44 18.21 10.44 37.32 69.84 37.32 69.84 18.21 69.84 18.21 69.81 17.71 69.71 17.22 69.61 16.73 69.41 16.26 69.25 15.84 68.98 15.41 68.72 15.04 68.36 14.68 68 14.35 67.64 14.06 67.21 13.83 66.81 13.6 66.32 13.4 65.86 13.3 65.33 13.23 64.87 13.2 64.87 13.2 64.87 13.2 64.87 13.2"/>
    <polygon class="cls-14" points="10.44 56.27 10.44 56.27 10.44 56.8 10.51 57.29 10.67 57.79 10.8 58.25 11.03 58.68 11.26 59.11 11.56 59.47 11.89 59.83 12.22 60.16 12.61 60.46 13.01 60.69 13.47 60.92 13.89 61.09 14.39 61.22 14.88 61.29 15.41 61.32 64.87 61.32 64.87 61.32 65.33 61.29 65.86 61.22 66.32 61.09 66.81 60.92 67.21 60.69 67.64 60.46 68 60.16 68.36 59.83 68.72 59.47 68.98 59.11 69.25 58.68 69.41 58.25 69.61 57.79 69.71 57.29 69.81 56.8 69.84 56.27 69.84 37.32 10.44 37.32 10.44 56.27 10.44 56.27 10.44 56.27"/>
    <polygon class="cls-12" points="71.76 38.04 71.76 57.02 71.76 57.02 71.79 57.54 71.86 58.04 71.99 58.54 72.16 58.97 72.35 59.43 72.62 59.86 72.91 60.22 73.21 60.55 73.6 60.92 73.97 61.21 74.39 61.45 74.82 61.64 75.28 61.81 75.78 61.97 76.24 62.04 76.73 62.04 126.19 62.04 126.19 62.04 126.65 62.04 127.18 61.97 127.64 61.81 128.13 61.64 128.53 61.45 128.95 61.21 129.32 60.92 129.71 60.55 130.04 60.22 130.3 59.86 130.57 59.43 130.73 58.97 130.93 58.54 131.03 58.04 131.13 57.54 131.16 57.02 131.16 38.04 71.76 38.04 71.76 38.04 71.76 38.04"/>
    <polygon class="cls-14" points="71.76 37.32 71.76 56.27 71.76 56.27 71.79 56.8 71.86 57.29 71.99 57.79 72.16 58.25 72.35 58.68 72.62 59.11 72.91 59.47 73.21 59.83 73.6 60.16 73.97 60.46 74.39 60.69 74.82 60.92 75.28 61.09 75.78 61.22 76.24 61.29 76.73 61.32 126.19 61.32 126.19 61.32 126.65 61.29 127.18 61.22 127.64 61.09 128.13 60.92 128.53 60.69 128.95 60.46 129.32 60.16 129.71 59.83 130.04 59.47 130.3 59.11 130.57 58.68 130.73 58.25 130.93 57.79 131.03 57.29 131.13 56.8 131.16 56.27 131.16 37.32 71.76 37.32 71.76 37.32 71.76 37.32"/>
    <polygon class="cls-13" points="131.16 18.21 131.16 18.21 131.13 17.71 131.03 17.22 130.93 16.73 130.73 16.26 130.57 15.84 130.3 15.41 130.04 15.04 129.71 14.68 129.32 14.35 128.95 14.06 128.53 13.83 128.13 13.6 127.64 13.4 127.18 13.3 126.65 13.23 126.19 13.2 76.73 13.2 76.73 13.2 76.24 13.23 75.78 13.3 75.28 13.4 74.82 13.6 74.39 13.83 73.97 14.06 73.6 14.35 73.21 14.68 72.91 15.04 72.62 15.41 72.35 15.84 72.16 16.26 71.99 16.73 71.86 17.22 71.79 17.71 71.76 18.21 71.76 37.32 131.16 37.32 131.16 18.21 131.16 18.21 131.16 18.21"/>
    <path class="cls-7" d="M19.72,27.25V22.93h2L22,23h0l.3.1.28.1h0l.2.2.13.23h0l.11.3,0,.3h0v.26l-.1.23-.1.24-.17.2h0l-.21.16-.27.1-.41.1-.4,0H20.3v1.72ZM20.3,25h1.39l.24,0,.17-.1.13-.07h0l.1-.1.07-.16,0-.13.06-.2h0L22.44,24l-.11-.23h0l-.13-.13L22,23.46h-.2l-.34,0H20.3V25Z" transform="translate(-5.56 -5.89)"/>
    <polygon class="cls-7" points="18.24 21.36 18.24 17.04 19.09 17.04 20.11 20.13 20.11 20.13 20.31 20.76 20.31 20.76 20.54 20.03 21.56 17.04 22.32 17.04 22.32 21.36 21.76 21.36 21.76 17.74 20.54 21.36 20.05 21.36 18.8 17.7 18.8 21.36 18.24 21.36 18.24 21.36 18.24 21.36"/>
    <g class="cls-15">
      <text class="cls-16" transform="translate(21.96 46.23)"><tspan class="cls-17">1</tspan><tspan x="15.98" y="0">6</tspan></text>
    </g>
    <g class="cls-18">
      <g class="cls-15">
        <text class="cls-16" transform="translate(85.49 46.23)"><tspan class="cls-19">0</tspan><tspan x="15.98" y="0">5</tspan></text>
      </g>
      <g class="cls-18">
        <polygon class="cls-20" points="10.44 37.08 69.84 37.08 69.84 37.56 10.44 37.56 10.44 37.08 10.44 37.08"/>
        <g class="cls-18">
          <polygon class="cls-20" points="71.76 37.08 131.16 37.08 131.16 37.56 71.76 37.56 71.76 37.08 71.76 37.08"/>
          <g class="cls-18">
            <polygon class="cls-7" points="127.62 40.68 127.62 40.68 127.39 40.68 127.12 40.61 126.92 40.45 126.72 40.32 126.59 40.15 126.46 39.92 126.39 39.72 126.36 39.45 126.36 35.22 126.36 35.22 126.39 34.95 126.46 34.72 126.59 34.49 126.72 34.29 126.92 34.16 127.12 34.03 127.39 33.96 127.62 33.96 127.62 33.96 127.89 33.96 128.08 34.03 128.32 34.16 128.51 34.29 128.65 34.49 128.78 34.72 128.85 34.95 128.88 35.22 128.88 39.45 128.88 39.45 128.85 39.72 128.78 39.92 128.65 40.15 128.51 40.32 128.32 40.45 128.08 40.61 127.89 40.68 127.62 40.68 127.62 40.68 127.62 40.68 127.62 40.68"/>
            <g class="cls-18">
              <polygon class="cls-7" points="13.98 40.68 13.98 40.68 13.75 40.68 13.48 40.61 13.28 40.45 13.12 40.32 12.95 40.15 12.85 39.92 12.75 39.72 12.72 39.45 12.72 35.22 12.72 35.22 12.75 34.95 12.85 34.72 12.95 34.49 13.12 34.29 13.28 34.16 13.48 34.03 13.75 33.96 13.98 33.96 13.98 33.96 14.24 33.96 14.48 34.03 14.68 34.16 14.88 34.29 15.04 34.49 15.14 34.72 15.21 34.95 15.24 35.22 15.24 39.45 15.24 39.45 15.21 39.72 15.14 39.92 15.04 40.15 14.88 40.32 14.68 40.45 14.48 40.61 14.24 40.68 13.98 40.68 13.98 40.68 13.98 40.68 13.98 40.68"/>
            </g>
          </g>
        </g>
      </g>
    </g>
  </g>
</svg>
