<svg id="圖層_1" data-name="圖層 1" xmlns="http://www.w3.org/2000/svg" viewBox="0 0 919.4 493.09">
  <defs>
    <style>
      .cls-1 {
        fill: #f4f4f5;
      }

      .cls-1, .cls-3, .cls-4, .cls-5, .cls-6, .cls-7 {
        fill-rule: evenodd;
      }

      .cls-2 {
        fill: none;
        stroke: #341610;
        stroke-linecap: square;
        stroke-miterlimit: 10;
        stroke-width: 2px;
      }

      .cls-3 {
        fill: #414141;
      }

      .cls-4 {
        fill: #e8e6de;
      }

      .cls-5 {
        fill: #341610;
      }

      .cls-6 {
        fill: #a46843;
      }

      .cls-7 {
        fill: #bd8e63;
      }
    </style>
  </defs>
  <title>family_sofa</title>
  <g>
    <polygon class="cls-1" points="722.68 290.99 722.68 290.99 722.68 291.42 722.46 292.07 722.03 293.58 720.95 295.31 719.44 297.47 717.92 299.85 715.98 302.01 711 307.64 705.38 313.47 699.11 319.31 692.84 325.37 686.56 330.99 686.56 330.99 674.88 341.37 674.88 341.37 673.59 342.88 672.51 344.4 671.64 346.13 670.99 347.64 670.56 349.59 670.56 351.32 670.78 353.26 670.99 355.21 670.99 355.21 671.64 357.16 671.86 358.67 671.86 360.62 671.86 362.35 671.86 362.35 670.99 364.29 670.56 365.37 669.91 366.24 669.48 366.89 668.61 367.54 667.75 367.75 666.67 367.75 650.88 367.75 631.42 367.75 631.42 367.75 630.12 367.75 629.25 367.1 628.39 366.45 627.74 365.81 627.31 364.72 627.31 363.43 627.52 362.56 628.17 361.48 628.17 361.48 629.04 360.4 630.12 359.1 631.2 358.02 632.5 357.16 634.01 356.51 635.31 356.07 636.82 355.21 638.55 354.99 638.55 354.99 639.85 354.56 641.15 353.91 642.23 353.26 643.53 352.4 643.53 352.4 645.69 350.88 648.07 348.51 650.01 346.34 651.96 343.75 654.12 341.37 655.85 339.21 657.15 337.05 658.23 335.1 658.23 335.1 659.96 331.64 661.69 328.18 664.72 321.04 664.72 321.04 666.88 315.42 669.05 309.8 673.15 298.34 677.26 286.88 679.21 281.25 681.16 276.06 683.54 270.87 685.91 265.9 688.08 261.14 690.89 256.82 693.7 252.71 695.21 250.98 696.73 249.25 698.24 247.52 699.97 246.01 701.92 244.49 703.65 243.41 703.65 243.41 704.08 242.98 704.73 243.19 705.16 243.41 705.81 243.84 707.33 245.57 708.62 247.95 710.14 250.98 711.65 254.44 713.16 258.12 714.68 262.22 717.71 270.87 720.09 278.88 721.82 286.01 722.46 288.61 722.68 290.99 722.68 290.99 722.68 290.99"/>
    <polygon class="cls-2" points="722.68 290.99 722.68 290.99 722.68 291.42 722.46 292.07 722.03 293.58 720.95 295.31 719.44 297.47 717.92 299.85 715.98 302.01 711 307.64 705.38 313.47 699.11 319.31 692.84 325.37 686.56 330.99 686.56 330.99 674.88 341.37 674.88 341.37 673.59 342.88 672.51 344.4 671.64 346.13 670.99 347.64 670.56 349.59 670.56 351.32 670.78 353.26 670.99 355.21 670.99 355.21 671.64 357.16 671.86 358.67 671.86 360.62 671.86 362.35 671.86 362.35 670.99 364.29 670.56 365.37 669.91 366.24 669.48 366.89 668.61 367.54 667.75 367.75 666.67 367.75 650.88 367.75 631.42 367.75 631.42 367.75 630.12 367.75 629.25 367.1 628.39 366.45 627.74 365.81 627.31 364.72 627.31 363.43 627.52 362.56 628.17 361.48 628.17 361.48 629.04 360.4 630.12 359.1 631.2 358.02 632.5 357.16 634.01 356.51 635.31 356.07 636.82 355.21 638.55 354.99 638.55 354.99 639.85 354.56 641.15 353.91 642.23 353.26 643.53 352.4 643.53 352.4 645.69 350.88 648.07 348.51 650.01 346.34 651.96 343.75 654.12 341.37 655.85 339.21 657.15 337.05 658.23 335.1 658.23 335.1 659.96 331.64 661.69 328.18 664.72 321.04 664.72 321.04 666.88 315.42 669.05 309.8 673.15 298.34 677.26 286.88 679.21 281.25 681.16 276.06 683.54 270.87 685.91 265.9 688.08 261.14 690.89 256.82 693.7 252.71 695.21 250.98 696.73 249.25 698.24 247.52 699.97 246.01 701.92 244.49 703.65 243.41 703.65 243.41 704.08 242.98 704.73 243.19 705.16 243.41 705.81 243.84 707.33 245.57 708.62 247.95 710.14 250.98 711.65 254.44 713.16 258.12 714.68 262.22 717.71 270.87 720.09 278.88 721.82 286.01 722.46 288.61 722.68 290.99 722.68 290.99 722.68 290.99"/>
    <polygon class="cls-1" points="686.56 330.77 686.56 330.77 674.88 341.15 674.88 341.15 673.59 342.67 672.51 344.18 671.64 345.91 670.99 347.64 670.56 349.37 670.56 351.32 670.78 353.26 670.99 355.21 670.99 355.21 671.64 357.16 671.86 358.67 671.86 360.62 671.86 362.35 671.86 362.35 670.99 364.29 670.56 365.37 669.91 366.24 669.48 366.89 668.61 367.54 667.75 367.75 666.67 367.75 650.88 367.75 631.42 367.75 631.42 367.75 630.12 367.75 629.25 367.1 628.39 366.45 627.74 365.59 627.31 364.72 627.31 363.43 627.52 362.35 628.17 361.48 628.17 361.48 629.04 360.4 630.12 359.1 631.2 358.02 632.5 357.16 634.01 356.51 635.31 355.86 636.82 355.21 638.55 354.78 638.55 354.78 639.85 354.56 641.15 353.91 642.23 353.26 643.53 352.4 643.53 352.4 645.69 350.67 648.07 348.51 650.01 346.34 651.96 343.75 654.12 341.37 655.85 338.99 657.15 336.83 658.23 334.88 658.23 334.88 659.96 331.42 661.69 327.96 664.72 320.83 664.72 320.83 666.88 321.26 669.48 321.91 672.29 322.77 675.1 323.64 678.13 325.15 681.16 326.67 683.97 328.61 685.27 329.69 686.56 330.77 686.56 330.77 686.56 330.77"/>
    <polygon class="cls-2" points="686.56 330.77 686.56 330.77 674.88 341.15 674.88 341.15 673.59 342.67 672.51 344.18 671.64 345.91 670.99 347.64 670.56 349.37 670.56 351.32 670.78 353.26 670.99 355.21 670.99 355.21 671.64 357.16 671.86 358.67 671.86 360.62 671.86 362.35 671.86 362.35 670.99 364.29 670.56 365.37 669.91 366.24 669.48 366.89 668.61 367.54 667.75 367.75 666.67 367.75 650.88 367.75 631.42 367.75 631.42 367.75 630.12 367.75 629.25 367.1 628.39 366.45 627.74 365.59 627.31 364.72 627.31 363.43 627.52 362.35 628.17 361.48 628.17 361.48 629.04 360.4 630.12 359.1 631.2 358.02 632.5 357.16 634.01 356.51 635.31 355.86 636.82 355.21 638.55 354.78 638.55 354.78 639.85 354.56 641.15 353.91 642.23 353.26 643.53 352.4 643.53 352.4 645.69 350.67 648.07 348.51 650.01 346.34 651.96 343.75 654.12 341.37 655.85 338.99 657.15 336.83 658.23 334.88 658.23 334.88 659.96 331.42 661.69 327.96 664.72 320.83 664.72 320.83 666.88 321.26 669.48 321.91 672.29 322.77 675.1 323.64 678.13 325.15 681.16 326.67 683.97 328.61 685.27 329.69 686.56 330.77 686.56 330.77 686.56 330.77"/>
    <polygon class="cls-1" points="651.1 367.75 631.42 367.75 631.42 367.75 630.12 367.75 629.25 367.1 628.39 366.45 627.74 365.59 627.31 364.72 627.31 363.43 627.52 362.35 628.17 361.48 628.17 361.48 629.04 360.18 630.12 358.89 631.2 358.02 632.71 357.16 634.01 356.29 635.52 355.86 637.04 354.99 638.55 354.78 638.55 354.78 639.85 354.35 641.36 353.7 642.45 353.05 643.74 352.18 643.74 352.18 646.12 355.21 647.2 356.94 648.5 358.89 649.37 361.05 650.23 363.21 650.88 365.37 651.1 367.75 651.1 367.75 651.1 367.75"/>
    <polygon class="cls-2" points="651.1 367.75 631.42 367.75 631.42 367.75 630.12 367.75 629.25 367.1 628.39 366.45 627.74 365.59 627.31 364.72 627.31 363.43 627.52 362.35 628.17 361.48 628.17 361.48 629.04 360.18 630.12 358.89 631.2 358.02 632.71 357.16 634.01 356.29 635.52 355.86 637.04 354.99 638.55 354.78 638.55 354.78 639.85 354.35 641.36 353.7 642.45 353.05 643.74 352.18 643.74 352.18 646.12 355.21 647.2 356.94 648.5 358.89 649.37 361.05 650.23 363.21 650.88 365.37 651.1 367.75 651.1 367.75 651.1 367.75"/>
    <polygon class="cls-1" points="767.23 98.53 767.23 98.53 767.45 97.44 768.1 95.07 768.31 93.34 768.1 91.61 767.88 89.88 767.23 88.15 767.23 88.15 767.01 89.23 766.8 91.61 766.37 93.12 765.93 94.42 765.28 95.72 764.42 96.8 764.42 96.8 763.99 97.66 763.77 97.88 763.99 98.09 764.2 98.53 765.07 98.74 766.37 98.74 767.23 98.53 767.23 98.53 767.23 98.53"/>
    <polygon class="cls-2" points="767.23 98.53 767.23 98.53 767.45 97.44 768.1 95.07 768.31 93.34 768.1 91.61 767.88 89.88 767.23 88.15 767.23 88.15 767.01 89.23 766.8 91.61 766.37 93.12 765.93 94.42 765.28 95.72 764.42 96.8 764.42 96.8 763.99 97.66 763.77 97.88 763.99 98.09 764.2 98.53 765.07 98.74 766.37 98.74 767.23 98.53 767.23 98.53 767.23 98.53"/>
    <polygon class="cls-1" points="766.37 94.2 766.37 94.2 767.23 94.2 768.31 94.2 769.39 94.42 770.69 94.85 772.21 95.72 773.29 96.36 774.15 97.23 774.58 98.09 774.58 98.09 773.93 97.88 773.07 97.44 772.21 97.01 770.91 96.8 769.39 96.8 768.31 97.44 767.45 97.88 766.8 98.31 766.37 94.2 766.37 94.2"/>
    <polygon class="cls-2" points="766.37 94.2 766.37 94.2 767.23 94.2 768.31 94.2 769.39 94.42 770.69 94.85 772.21 95.72 773.29 96.36 774.15 97.23 774.58 98.09 774.58 98.09 773.93 97.88 773.07 97.44 772.21 97.01 770.91 96.8 769.39 96.8 768.31 97.44 767.45 97.88 766.8 98.31 766.37 94.2 766.37 94.2"/>
    <polygon class="cls-1" points="825.62 315.64 825.62 315.64 825.62 317.8 824.97 320.39 824.11 323.85 823.03 327.53 822.38 329.69 821.51 332.07 820.22 334.23 819.13 336.83 817.62 339.21 816.11 341.59 814.16 343.96 812.21 346.56 809.84 348.94 807.46 351.1 804.64 353.48 801.62 355.64 798.37 357.8 794.91 359.53 791.02 361.26 786.7 362.99 782.37 364.29 777.39 365.37 772.42 366.45 767.01 367.1 760.96 367.54 754.9 367.75 754.9 367.75 752.52 367.54 750.15 367.54 747.77 366.89 745.6 366.24 743.44 365.59 741.06 364.51 738.9 363.64 736.74 362.35 734.58 361.05 732.63 359.53 730.47 357.8 728.3 356.29 724.41 352.4 720.3 348.29 716.63 343.53 712.73 338.77 709.27 333.58 705.81 328.18 702.57 322.77 699.32 317.15 696.3 311.31 693.27 305.47 690.67 299.63 687.86 293.8 683.32 282.55 679.21 272.17 675.75 262.66 673.15 254.66 670.99 248.6 669.48 243.19 669.48 243.19 671.42 242.11 675.97 239.52 678.35 238.22 680.94 237.14 682.89 236.49 683.75 236.28 684.4 236.49 684.4 236.49 687 237.14 690.02 238.22 693.48 239.74 697.38 241.47 706.24 246.01 716.63 251.41 727.87 257.25 739.55 263.95 751.88 271.09 763.99 278.23 787.34 292.07 807.02 304.18 825.62 315.64 825.62 315.64 825.62 315.64"/>
    <polygon class="cls-2" points="825.62 315.64 825.62 315.64 825.62 317.8 824.97 320.39 824.11 323.85 823.03 327.53 822.38 329.69 821.51 332.07 820.22 334.23 819.13 336.83 817.62 339.21 816.11 341.59 814.16 343.96 812.21 346.56 809.84 348.94 807.46 351.1 804.64 353.48 801.62 355.64 798.37 357.8 794.91 359.53 791.02 361.26 786.7 362.99 782.37 364.29 777.39 365.37 772.42 366.45 767.01 367.1 760.96 367.54 754.9 367.75 754.9 367.75 752.52 367.54 750.15 367.54 747.77 366.89 745.6 366.24 743.44 365.59 741.06 364.51 738.9 363.64 736.74 362.35 734.58 361.05 732.63 359.53 730.47 357.8 728.3 356.29 724.41 352.4 720.3 348.29 716.63 343.53 712.73 338.77 709.27 333.58 705.81 328.18 702.57 322.77 699.32 317.15 696.3 311.31 693.27 305.47 690.67 299.63 687.86 293.8 683.32 282.55 679.21 272.17 675.75 262.66 673.15 254.66 670.99 248.6 669.48 243.19 669.48 243.19 671.42 242.11 675.97 239.52 678.35 238.22 680.94 237.14 682.89 236.49 683.75 236.28 684.4 236.49 684.4 236.49 687 237.14 690.02 238.22 693.48 239.74 697.38 241.47 706.24 246.01 716.63 251.41 727.87 257.25 739.55 263.95 751.88 271.09 763.99 278.23 787.34 292.07 807.02 304.18 825.62 315.64 825.62 315.64 825.62 315.64"/>
    <polygon class="cls-1" points="720.09 176.16 746.9 188.48 752.96 167.51 752.96 167.51 752.31 166.21 750.79 162.53 749.71 159.72 749.07 156.48 748.2 152.59 747.33 148.48 747.33 148.48 746.9 144.59 746.69 140.26 746.47 135.72 746.69 131.18 722.46 143.72 722.46 143.72 722.68 145.24 723.33 149.34 723.33 149.34 723.54 152.37 723.54 155.62 723.33 159.07 723.11 160.81 722.9 162.53 722.9 162.53 721.6 168.81 720.09 176.16 720.09 176.16 720.09 176.16"/>
    <polygon class="cls-2" points="720.09 176.16 746.9 188.48 752.96 167.51 752.96 167.51 752.31 166.21 750.79 162.53 749.71 159.72 749.07 156.48 748.2 152.59 747.33 148.48 747.33 148.48 746.9 144.59 746.69 140.26 746.47 135.72 746.69 131.18 722.46 143.72 722.46 143.72 722.68 145.24 723.33 149.34 723.33 149.34 723.54 152.37 723.54 155.62 723.33 159.07 723.11 160.81 722.9 162.53 722.9 162.53 721.6 168.81 720.09 176.16 720.09 176.16 720.09 176.16"/>
    <polygon class="cls-1" points="722.68 162.32 722.68 162.32 725.49 162.32 727.87 161.89 730.25 161.02 732.41 160.16 734.58 159.07 736.74 157.99 738.68 156.7 740.41 155.4 743.44 152.8 745.6 150.64 747.33 148.69 723.33 149.56 723.33 149.56 723.33 152.37 723.54 155.62 723.33 159.07 723.11 160.81 722.68 162.32 722.68 162.32 722.68 162.32"/>
    <polygon class="cls-2" points="722.68 162.32 722.68 162.32 725.49 162.32 727.87 161.89 730.25 161.02 732.41 160.16 734.58 159.07 736.74 157.99 738.68 156.7 740.41 155.4 743.44 152.8 745.6 150.64 747.33 148.69 723.33 149.56 723.33 149.56 723.33 152.37 723.54 155.62 723.33 159.07 723.11 160.81 722.68 162.32 722.68 162.32 722.68 162.32"/>
    <polygon class="cls-1" points="716.19 154.97 716.19 154.97 717.27 155.4 720.52 155.83 722.9 156.05 725.27 156.05 728.09 156.05 731.11 155.83 734.36 155.4 737.17 154.53 738.9 153.88 740.41 153.45 741.93 152.59 743.44 151.72 744.96 150.64 746.47 149.78 747.77 148.26 749.07 146.97 750.15 145.45 751.44 143.94 752.52 141.99 753.39 140.05 753.39 140.05 754.25 137.67 755.12 135.72 756.42 131.4 757.07 127.29 757.5 123.18 757.5 119.72 757.07 116.26 756.42 113.02 755.55 109.99 754.47 107.39 753.17 105.01 751.66 102.85 749.93 101.12 748.2 99.61 746.47 98.53 744.74 97.66 743.01 97.23 743.01 97.23 739.55 96.8 736.3 96.8 733.28 96.8 730.25 97.23 727.65 97.66 725.06 98.09 722.9 98.96 720.52 99.61 718.57 100.69 717.06 101.99 715.33 103.07 713.81 104.36 712.73 105.66 711.43 106.96 710.78 108.26 709.92 109.77 709.92 109.77 709.27 111.5 708.62 113.66 707.97 116.47 707.33 119.72 706.89 122.75 706.46 126.42 706.03 130.1 706.03 133.78 706.03 137.45 706.46 140.91 707.11 144.15 707.54 145.88 708.19 147.4 708.84 148.69 709.49 149.78 710.35 151.07 711.22 152.16 712.3 153.02 713.38 153.88 714.68 154.53 716.19 154.97 716.19 154.97 716.19 154.97"/>
    <polygon class="cls-2" points="716.19 154.97 716.19 154.97 717.27 155.4 720.52 155.83 722.9 156.05 725.27 156.05 728.09 156.05 731.11 155.83 734.36 155.4 737.17 154.53 738.9 153.88 740.41 153.45 741.93 152.59 743.44 151.72 744.96 150.64 746.47 149.78 747.77 148.26 749.07 146.97 750.15 145.45 751.44 143.94 752.52 141.99 753.39 140.05 753.39 140.05 754.25 137.67 755.12 135.72 756.42 131.4 757.07 127.29 757.5 123.18 757.5 119.72 757.07 116.26 756.42 113.02 755.55 109.99 754.47 107.39 753.17 105.01 751.66 102.85 749.93 101.12 748.2 99.61 746.47 98.53 744.74 97.66 743.01 97.23 743.01 97.23 739.55 96.8 736.3 96.8 733.28 96.8 730.25 97.23 727.65 97.66 725.06 98.09 722.9 98.96 720.52 99.61 718.57 100.69 717.06 101.99 715.33 103.07 713.81 104.36 712.73 105.66 711.43 106.96 710.78 108.26 709.92 109.77 709.92 109.77 709.27 111.5 708.62 113.66 707.97 116.47 707.33 119.72 706.89 122.75 706.46 126.42 706.03 130.1 706.03 133.78 706.03 137.45 706.46 140.91 707.11 144.15 707.54 145.88 708.19 147.4 708.84 148.69 709.49 149.78 710.35 151.07 711.22 152.16 712.3 153.02 713.38 153.88 714.68 154.53 716.19 154.97 716.19 154.97 716.19 154.97"/>
    <polygon class="cls-1" points="789.07 367.75 789.07 367.75 740.63 367.75 740.63 367.75 739.76 367.54 738.68 367.32 735.22 365.81 735.22 365.81 732.2 364.29 728.95 362.35 722.46 358.67 715.54 354.35 715.54 354.35 715.11 350.24 714.89 346.78 715.11 342.88 715.54 339.42 715.98 336.18 716.63 332.94 717.49 329.91 718.57 326.88 719.65 324.07 720.73 321.26 722.25 318.66 723.54 316.07 725.06 313.69 726.57 311.74 728.3 309.37 729.82 307.64 733.06 303.96 736.3 300.93 739.12 298.34 741.93 296.18 744.31 294.44 746.04 293.36 747.77 292.5 747.77 292.5 750.36 292.93 757.72 294.23 762.91 295.31 768.53 296.39 774.58 298.34 780.64 300.07 787.13 302.23 793.4 304.61 796.43 305.91 799.45 307.42 802.27 308.93 805.08 310.45 807.67 312.18 810.05 313.69 812.21 315.64 814.16 317.58 815.89 319.53 817.4 321.69 818.49 323.85 819.35 326.23 819.35 326.23 819.57 328.18 820 330.13 820 330.13 820 332.29 820 334.23 819.78 336.18 819.35 338.13 818.92 340.07 818.05 342.02 817.4 343.75 816.32 345.48 815.03 347.21 813.94 348.72 811.13 351.75 808.32 354.56 805.29 357.37 802.48 359.75 799.45 361.7 796.64 363.64 794.26 365.16 790.59 367.1 789.07 367.75 789.07 367.75 789.07 367.75"/>
    <polygon class="cls-2" points="789.07 367.75 789.07 367.75 740.63 367.75 740.63 367.75 739.76 367.54 738.68 367.32 735.22 365.81 735.22 365.81 732.2 364.29 728.95 362.35 722.46 358.67 715.54 354.35 715.54 354.35 715.11 350.24 714.89 346.78 715.11 342.88 715.54 339.42 715.98 336.18 716.63 332.94 717.49 329.91 718.57 326.88 719.65 324.07 720.73 321.26 722.25 318.66 723.54 316.07 725.06 313.69 726.57 311.74 728.3 309.37 729.82 307.64 733.06 303.96 736.3 300.93 739.12 298.34 741.93 296.18 744.31 294.44 746.04 293.36 747.77 292.5 747.77 292.5 750.36 292.93 757.72 294.23 762.91 295.31 768.53 296.39 774.58 298.34 780.64 300.07 787.13 302.23 793.4 304.61 796.43 305.91 799.45 307.42 802.27 308.93 805.08 310.45 807.67 312.18 810.05 313.69 812.21 315.64 814.16 317.58 815.89 319.53 817.4 321.69 818.49 323.85 819.35 326.23 819.35 326.23 819.57 328.18 820 330.13 820 330.13 820 332.29 820 334.23 819.78 336.18 819.35 338.13 818.92 340.07 818.05 342.02 817.4 343.75 816.32 345.48 815.03 347.21 813.94 348.72 811.13 351.75 808.32 354.56 805.29 357.37 802.48 359.75 799.45 361.7 796.64 363.64 794.26 365.16 790.59 367.1 789.07 367.75 789.07 367.75 789.07 367.75"/>
    <polygon class="cls-1" points="789.07 367.75 789.07 367.75 740.63 367.75 740.63 367.75 739.55 367.54 738.47 367.32 735.01 365.81 735.01 365.81 738.25 366.02 738.25 366.02 743.01 366.24 747.12 366.24 751.01 366.02 754.69 365.37 757.93 364.72 760.96 364.08 763.77 362.99 766.37 361.7 768.75 360.18 770.69 358.89 772.64 357.37 774.15 355.64 775.66 353.91 777.18 352.18 778.04 350.24 779.13 348.51 779.99 346.56 780.42 344.61 781.07 342.67 781.5 340.94 782.15 337.48 782.37 334.45 782.37 331.86 782.37 329.69 782.15 327.96 820 330.34 820 330.34 820 332.5 820 334.45 819.78 336.4 819.35 338.34 818.92 340.29 818.05 342.24 817.4 343.96 816.32 345.48 815.03 347.21 813.94 348.94 811.13 351.97 808.32 354.78 805.29 357.37 802.27 359.75 799.45 361.7 796.64 363.64 794.05 365.16 790.59 367.1 789.07 367.75 789.07 367.75 789.07 367.75"/>
    <polygon class="cls-2" points="789.07 367.75 789.07 367.75 740.63 367.75 740.63 367.75 739.55 367.54 738.47 367.32 735.01 365.81 735.01 365.81 738.25 366.02 738.25 366.02 743.01 366.24 747.12 366.24 751.01 366.02 754.69 365.37 757.93 364.72 760.96 364.08 763.77 362.99 766.37 361.7 768.75 360.18 770.69 358.89 772.64 357.37 774.15 355.64 775.66 353.91 777.18 352.18 778.04 350.24 779.13 348.51 779.99 346.56 780.42 344.61 781.07 342.67 781.5 340.94 782.15 337.48 782.37 334.45 782.37 331.86 782.37 329.69 782.15 327.96 820 330.34 820 330.34 820 332.5 820 334.45 819.78 336.4 819.35 338.34 818.92 340.29 818.05 342.24 817.4 343.96 816.32 345.48 815.03 347.21 813.94 348.94 811.13 351.97 808.32 354.78 805.29 357.37 802.27 359.75 799.45 361.7 796.64 363.64 794.05 365.16 790.59 367.1 789.07 367.75 789.07 367.75 789.07 367.75"/>
    <polygon class="cls-3" points="711.87 106.31 711.87 106.31 710.57 106.53 709.27 106.31 707.97 106.09 706.89 105.66 705.81 105.01 704.95 104.36 704.08 103.5 703.43 102.42 702.78 101.34 702.57 100.04 702.57 98.53 702.78 97.01 703.43 95.28 704.08 93.34 705.16 91.39 706.68 89.23 706.68 89.23 707.33 88.15 708.41 87.5 709.27 86.63 710.57 85.77 713.16 84.25 715.98 82.96 719 81.88 722.46 81.01 725.92 80.58 729.82 80.15 733.49 80.15 737.39 80.15 741.28 80.79 744.96 81.44 748.42 82.31 751.66 83.39 754.9 84.9 755.99 85.77 757.5 86.63 757.5 86.63 760.74 89.01 763.77 91.82 766.37 94.42 768.53 96.8 770.48 99.39 772.21 101.99 773.5 104.36 774.37 106.96 775.23 109.34 775.88 111.72 776.1 114.1 776.1 116.47 776.1 118.64 775.66 121.02 775.02 123.18 774.37 125.34 773.5 127.29 772.64 129.45 771.56 131.4 770.04 133.13 768.75 135.07 767.45 137.02 765.72 138.53 764.2 140.05 760.96 143.07 757.5 145.67 754.25 148.05 751.01 149.56 751.01 149.56 750.15 149.99 749.5 150.21 748.63 150.21 747.77 150.21 746.9 149.78 746.25 149.56 745.6 148.69 744.96 148.05 744.96 148.05 742.79 144.8 741.5 143.07 740.63 141.34 739.76 139.4 739.12 137.67 738.9 136.15 738.9 135.72 739.12 135.07 739.12 135.07 739.55 133.34 739.98 131.4 739.98 129.02 739.98 127.07 739.76 126.21 739.55 125.34 739.12 124.69 738.9 124.04 738.03 123.61 737.39 123.18 736.52 123.18 735.66 123.61 735.66 123.61 735.22 123.83 734.79 123.83 733.49 123.61 732.2 122.75 730.68 121.88 729.38 120.37 727.65 118.85 724.41 115.61 721.17 112.15 719.44 110.64 718.14 109.34 716.41 108.04 714.89 106.96 713.38 106.53 712.52 106.31 711.87 106.31 711.87 106.31 711.87 106.31"/>
    <polygon class="cls-2" points="711.87 106.31 711.87 106.31 710.57 106.53 709.27 106.31 707.97 106.09 706.89 105.66 705.81 105.01 704.95 104.36 704.08 103.5 703.43 102.42 702.78 101.34 702.57 100.04 702.57 98.53 702.78 97.01 703.43 95.28 704.08 93.34 705.16 91.39 706.68 89.23 706.68 89.23 707.33 88.15 708.41 87.5 709.27 86.63 710.57 85.77 713.16 84.25 715.98 82.96 719 81.88 722.46 81.01 725.92 80.58 729.82 80.15 733.49 80.15 737.39 80.15 741.28 80.79 744.96 81.44 748.42 82.31 751.66 83.39 754.9 84.9 755.99 85.77 757.5 86.63 757.5 86.63 760.74 89.01 763.77 91.82 766.37 94.42 768.53 96.8 770.48 99.39 772.21 101.99 773.5 104.36 774.37 106.96 775.23 109.34 775.88 111.72 776.1 114.1 776.1 116.47 776.1 118.64 775.66 121.02 775.02 123.18 774.37 125.34 773.5 127.29 772.64 129.45 771.56 131.4 770.04 133.13 768.75 135.07 767.45 137.02 765.72 138.53 764.2 140.05 760.96 143.07 757.5 145.67 754.25 148.05 751.01 149.56 751.01 149.56 750.15 149.99 749.5 150.21 748.63 150.21 747.77 150.21 746.9 149.78 746.25 149.56 745.6 148.69 744.96 148.05 744.96 148.05 742.79 144.8 741.5 143.07 740.63 141.34 739.76 139.4 739.12 137.67 738.9 136.15 738.9 135.72 739.12 135.07 739.12 135.07 739.55 133.34 739.98 131.4 739.98 129.02 739.98 127.07 739.76 126.21 739.55 125.34 739.12 124.69 738.9 124.04 738.03 123.61 737.39 123.18 736.52 123.18 735.66 123.61 735.66 123.61 735.22 123.83 734.79 123.83 733.49 123.61 732.2 122.75 730.68 121.88 729.38 120.37 727.65 118.85 724.41 115.61 721.17 112.15 719.44 110.64 718.14 109.34 716.41 108.04 714.89 106.96 713.38 106.53 712.52 106.31 711.87 106.31 711.87 106.31 711.87 106.31"/>
    <polygon class="cls-4" points="825.19 334.23 825.19 334.23 823.46 335.31 822.16 336.4 820.65 337.48 818.92 338.56 817.4 339.21 815.89 339.86 814.16 340.5 812.65 340.94 810.92 341.15 809.4 341.59 806.38 341.8 803.35 341.37 800.1 340.94 797.29 339.86 794.05 338.77 791.02 337.26 787.99 335.53 784.97 333.58 782.15 331.42 779.13 329.04 776.31 326.23 773.5 323.64 770.69 320.83 765.72 314.77 760.74 308.93 755.99 302.88 751.66 297.04 747.77 291.63 744.31 286.88 741.28 282.98 741.28 282.98 738.47 279.74 737.39 278.66 736.52 277.79 736.52 277.79 734.58 276.5 732.63 274.77 730.68 272.82 728.52 270.66 726.36 268.06 724.41 265.47 722.46 262.66 720.52 259.85 719 257.03 717.27 254.22 715.76 251.41 714.25 248.38 713.16 246.01 712.3 243.41 711.87 241.25 711.65 239.3 711.65 239.3 711.22 232.6 711.22 225.9 711.65 219.41 712.08 212.92 712.08 212.92 712.52 208.16 713.16 203.62 714.68 194.76 716.41 186.97 718.14 179.84 719.44 174 720.73 169.67 722.03 165.78 722.03 165.78 730.68 166 737.6 165.56 742.58 165.13 746.25 164.48 748.63 163.83 749.93 162.97 750.58 162.53 750.79 162.32 750.79 162.32 753.61 162.97 756.42 163.83 759.01 164.7 761.82 165.78 764.2 167.08 767.01 168.59 769.39 170.32 771.77 172.05 774.37 174 776.75 176.16 778.91 178.54 781.07 180.92 783.24 183.51 785.61 186.11 787.56 188.92 789.72 191.73 793.4 197.78 797.29 204.27 800.75 210.97 804 218.11 807.02 225.25 810.05 232.81 812.65 240.17 815.03 247.95 817.4 255.52 819.35 263.09 821.08 270.44 822.6 277.58 824.11 284.93 825.41 291.63 826.27 298.12 827.14 304.39 827.57 310.01 828 315.2 828 319.96 828 324.29 827.35 327.75 826.92 330.56 826.49 331.86 826.05 332.72 825.62 333.58 825.19 334.23 825.19 334.23 825.19 334.23"/>
    <polygon class="cls-2" points="825.19 334.23 825.19 334.23 823.46 335.31 822.16 336.4 820.65 337.48 818.92 338.56 817.4 339.21 815.89 339.86 814.16 340.5 812.65 340.94 810.92 341.15 809.4 341.59 806.38 341.8 803.35 341.37 800.1 340.94 797.29 339.86 794.05 338.77 791.02 337.26 787.99 335.53 784.97 333.58 782.15 331.42 779.13 329.04 776.31 326.23 773.5 323.64 770.69 320.83 765.72 314.77 760.74 308.93 755.99 302.88 751.66 297.04 747.77 291.63 744.31 286.88 741.28 282.98 741.28 282.98 738.47 279.74 737.39 278.66 736.52 277.79 736.52 277.79 734.58 276.5 732.63 274.77 730.68 272.82 728.52 270.66 726.36 268.06 724.41 265.47 722.46 262.66 720.52 259.85 719 257.03 717.27 254.22 715.76 251.41 714.25 248.38 713.16 246.01 712.3 243.41 711.87 241.25 711.65 239.3 711.65 239.3 711.22 232.6 711.22 225.9 711.65 219.41 712.08 212.92 712.08 212.92 712.52 208.16 713.16 203.62 714.68 194.76 716.41 186.97 718.14 179.84 719.44 174 720.73 169.67 722.03 165.78 722.03 165.78 730.68 166 737.6 165.56 742.58 165.13 746.25 164.48 748.63 163.83 749.93 162.97 750.58 162.53 750.79 162.32 750.79 162.32 753.61 162.97 756.42 163.83 759.01 164.7 761.82 165.78 764.2 167.08 767.01 168.59 769.39 170.32 771.77 172.05 774.37 174 776.75 176.16 778.91 178.54 781.07 180.92 783.24 183.51 785.61 186.11 787.56 188.92 789.72 191.73 793.4 197.78 797.29 204.27 800.75 210.97 804 218.11 807.02 225.25 810.05 232.81 812.65 240.17 815.03 247.95 817.4 255.52 819.35 263.09 821.08 270.44 822.6 277.58 824.11 284.93 825.41 291.63 826.27 298.12 827.14 304.39 827.57 310.01 828 315.2 828 319.96 828 324.29 827.35 327.75 826.92 330.56 826.49 331.86 826.05 332.72 825.62 333.58 825.19 334.23 825.19 334.23 825.19 334.23"/>
    <polygon class="cls-1" points="741.28 282.77 741.28 282.77 738.47 279.52 737.39 278.44 736.52 277.79 736.52 277.79 734.58 276.28 732.63 274.77 730.68 272.82 728.52 270.66 726.36 268.06 724.41 265.25 722.46 262.66 720.52 259.85 719 257.03 717.27 254.22 715.76 251.41 714.25 248.6 713.16 246.01 712.3 243.63 711.87 241.25 711.65 239.3 711.65 239.3 711.22 232.81 711.22 226.11 711.65 219.62 712.08 213.14 712.08 213.14 713.6 210.11 715.33 207.51 717.49 204.92 719.65 202.54 722.25 200.38 725.06 198.65 728.3 196.7 731.76 195.19 740.2 195.19 740.2 195.19 741.28 196.27 742.36 197.78 743.87 199.73 745.17 202.54 746.69 206 748.2 210.11 749.07 212.49 749.71 214.87 750.15 217.46 750.58 220.27 751.01 223.52 751.23 226.76 751.44 230.22 751.44 234.11 751.23 237.79 751.01 241.9 750.58 246.22 749.71 250.76 749.07 255.52 747.77 260.49 746.69 265.68 745.17 271.31 743.23 276.93 741.28 282.77 741.28 282.77 741.28 282.77"/>
    <polygon class="cls-2" points="741.28 282.77 741.28 282.77 738.47 279.52 737.39 278.44 736.52 277.79 736.52 277.79 734.58 276.28 732.63 274.77 730.68 272.82 728.52 270.66 726.36 268.06 724.41 265.25 722.46 262.66 720.52 259.85 719 257.03 717.27 254.22 715.76 251.41 714.25 248.6 713.16 246.01 712.3 243.63 711.87 241.25 711.65 239.3 711.65 239.3 711.22 232.81 711.22 226.11 711.65 219.62 712.08 213.14 712.08 213.14 713.6 210.11 715.33 207.51 717.49 204.92 719.65 202.54 722.25 200.38 725.06 198.65 728.3 196.7 731.76 195.19 740.2 195.19 740.2 195.19 741.28 196.27 742.36 197.78 743.87 199.73 745.17 202.54 746.69 206 748.2 210.11 749.07 212.49 749.71 214.87 750.15 217.46 750.58 220.27 751.01 223.52 751.23 226.76 751.44 230.22 751.44 234.11 751.23 237.79 751.01 241.9 750.58 246.22 749.71 250.76 749.07 255.52 747.77 260.49 746.69 265.68 745.17 271.31 743.23 276.93 741.28 282.77 741.28 282.77 741.28 282.77"/>
    <polygon class="cls-1" points="688.51 290.99 688.51 290.99 688.51 291.42 688.51 292.07 687.64 293.58 687.64 293.58 687 295.09 685.7 296.82 684.4 298.77 682.67 300.93 678.78 305.26 674.02 310.45 668.83 315.42 663.42 320.83 652.39 330.99 652.39 330.99 640.72 341.37 640.72 341.37 639.42 342.88 638.12 344.4 637.25 346.13 636.61 347.64 636.39 349.59 636.39 351.32 636.39 353.26 637.04 355.21 637.04 355.21 637.47 357.16 637.9 358.67 637.9 360.62 637.47 362.35 637.47 362.35 636.82 364.29 636.39 365.37 635.74 366.24 635.09 366.89 634.44 367.54 633.58 367.75 632.5 367.75 597.03 367.75 597.03 367.75 595.95 367.75 594.87 367.1 594 366.45 593.57 365.81 593.14 364.72 593.14 363.43 593.14 362.56 593.57 361.48 593.57 361.48 594.65 360.4 595.73 359.1 597.03 358.02 598.11 357.16 599.63 356.51 600.92 356.07 602.65 355.21 604.38 354.99 604.38 354.99 605.68 354.35 607.19 353.91 608.27 353.05 609.79 351.97 611.3 350.88 612.6 349.59 615.63 346.78 618.01 343.53 620.39 340.5 622.33 337.48 623.85 335.1 623.85 335.1 625.79 331.64 627.31 328.18 630.55 321.04 630.55 321.04 633.79 312.82 636.82 304.39 642.66 287.52 642.66 287.52 644.82 281.69 646.99 276.06 649.37 270.66 651.75 265.47 651.75 265.47 653.48 262.01 655.42 258.76 657.37 255.52 659.53 252.71 661.91 249.68 664.29 247.52 666.67 245.14 669.48 243.41 669.48 243.41 669.48 243.19 669.48 243.19 669.91 242.98 670.34 243.19 670.99 243.41 671.21 243.63 672.29 244.71 673.37 246.22 674.45 248.38 675.75 250.55 678.35 256.17 678.35 256.17 680.72 263.09 683.32 270.23 683.32 270.23 685.27 276.71 686.78 282.55 688.08 287.52 688.51 290.99 688.51 290.99 688.51 290.99"/>
    <polygon class="cls-2" points="688.51 290.99 688.51 290.99 688.51 291.42 688.51 292.07 687.64 293.58 687.64 293.58 687 295.09 685.7 296.82 684.4 298.77 682.67 300.93 678.78 305.26 674.02 310.45 668.83 315.42 663.42 320.83 652.39 330.99 652.39 330.99 640.72 341.37 640.72 341.37 639.42 342.88 638.12 344.4 637.25 346.13 636.61 347.64 636.39 349.59 636.39 351.32 636.39 353.26 637.04 355.21 637.04 355.21 637.47 357.16 637.9 358.67 637.9 360.62 637.47 362.35 637.47 362.35 636.82 364.29 636.39 365.37 635.74 366.24 635.09 366.89 634.44 367.54 633.58 367.75 632.5 367.75 597.03 367.75 597.03 367.75 595.95 367.75 594.87 367.1 594 366.45 593.57 365.81 593.14 364.72 593.14 363.43 593.14 362.56 593.57 361.48 593.57 361.48 594.65 360.4 595.73 359.1 597.03 358.02 598.11 357.16 599.63 356.51 600.92 356.07 602.65 355.21 604.38 354.99 604.38 354.99 605.68 354.35 607.19 353.91 608.27 353.05 609.79 351.97 611.3 350.88 612.6 349.59 615.63 346.78 618.01 343.53 620.39 340.5 622.33 337.48 623.85 335.1 623.85 335.1 625.79 331.64 627.31 328.18 630.55 321.04 630.55 321.04 633.79 312.82 636.82 304.39 642.66 287.52 642.66 287.52 644.82 281.69 646.99 276.06 649.37 270.66 651.75 265.47 651.75 265.47 653.48 262.01 655.42 258.76 657.37 255.52 659.53 252.71 661.91 249.68 664.29 247.52 666.67 245.14 669.48 243.41 669.48 243.41 669.48 243.19 669.48 243.19 669.91 242.98 670.34 243.19 670.99 243.41 671.21 243.63 672.29 244.71 673.37 246.22 674.45 248.38 675.75 250.55 678.35 256.17 678.35 256.17 680.72 263.09 683.32 270.23 683.32 270.23 685.27 276.71 686.78 282.55 688.08 287.52 688.51 290.99 688.51 290.99 688.51 290.99"/>
    <polygon class="cls-1" points="652.39 330.77 652.39 330.77 640.72 341.15 640.72 341.15 639.2 342.67 638.12 344.18 637.25 345.91 636.61 347.64 636.17 349.37 636.17 351.32 636.39 353.26 636.82 355.21 636.82 355.21 637.47 357.16 637.69 358.67 637.69 360.62 637.47 362.35 637.47 362.35 636.82 364.29 636.17 365.37 635.74 366.24 635.09 366.89 634.23 367.54 633.36 367.75 632.5 367.75 597.03 367.75 597.03 367.75 595.95 367.75 594.87 367.1 594 366.45 593.57 365.59 593.14 364.72 593.14 363.43 593.14 362.35 593.57 361.48 593.57 361.48 594.65 360.4 595.73 359.1 597.03 358.02 598.11 357.16 599.63 356.51 600.92 355.86 602.65 355.21 604.38 354.78 604.38 354.78 605.68 354.35 606.98 353.91 608.27 353.05 609.79 351.97 611.09 350.88 612.6 349.37 615.63 346.56 618.01 343.53 620.39 340.29 622.33 337.26 623.85 334.88 623.85 334.88 625.79 331.42 627.31 327.96 630.33 320.83 630.33 320.83 632.71 321.26 635.31 321.91 637.9 322.77 640.93 323.64 643.96 325.15 646.77 326.67 649.58 328.61 651.1 329.69 652.39 330.77 652.39 330.77 652.39 330.77"/>
    <polygon class="cls-2" points="652.39 330.77 652.39 330.77 640.72 341.15 640.72 341.15 639.2 342.67 638.12 344.18 637.25 345.91 636.61 347.64 636.17 349.37 636.17 351.32 636.39 353.26 636.82 355.21 636.82 355.21 637.47 357.16 637.69 358.67 637.69 360.62 637.47 362.35 637.47 362.35 636.82 364.29 636.17 365.37 635.74 366.24 635.09 366.89 634.23 367.54 633.36 367.75 632.5 367.75 597.03 367.75 597.03 367.75 595.95 367.75 594.87 367.1 594 366.45 593.57 365.59 593.14 364.72 593.14 363.43 593.14 362.35 593.57 361.48 593.57 361.48 594.65 360.4 595.73 359.1 597.03 358.02 598.11 357.16 599.63 356.51 600.92 355.86 602.65 355.21 604.38 354.78 604.38 354.78 605.68 354.35 606.98 353.91 608.27 353.05 609.79 351.97 611.09 350.88 612.6 349.37 615.63 346.56 618.01 343.53 620.39 340.29 622.33 337.26 623.85 334.88 623.85 334.88 625.79 331.42 627.31 327.96 630.33 320.83 630.33 320.83 632.71 321.26 635.31 321.91 637.9 322.77 640.93 323.64 643.96 325.15 646.77 326.67 649.58 328.61 651.1 329.69 652.39 330.77 652.39 330.77 652.39 330.77"/>
    <polygon class="cls-1" points="708.62 247.09 708.62 247.09 706.68 249.25 704.3 251.63 701.27 254.87 697.81 258.33 693.48 262.22 688.73 266.33 683.32 270.23 683.32 270.23 679.43 273.04 679.43 273.04 675.32 275.85 670.99 278.23 666.67 280.61 661.91 282.77 657.15 284.5 654.77 285.36 652.39 286.01 650.01 286.44 647.42 286.88 645.04 287.09 642.66 287.31 642.66 287.31 644.82 281.69 646.99 275.85 649.15 270.66 651.53 265.47 651.53 265.47 662.77 261.36 674.02 257.47 674.02 257.47 678.35 256.17 678.35 256.17 689.81 252.49 699.32 249.68 708.62 247.09 708.62 247.09 708.62 247.09"/>
    <polygon class="cls-2" points="708.62 247.09 708.62 247.09 706.68 249.25 704.3 251.63 701.27 254.87 697.81 258.33 693.48 262.22 688.73 266.33 683.32 270.23 683.32 270.23 679.43 273.04 679.43 273.04 675.32 275.85 670.99 278.23 666.67 280.61 661.91 282.77 657.15 284.5 654.77 285.36 652.39 286.01 650.01 286.44 647.42 286.88 645.04 287.09 642.66 287.31 642.66 287.31 644.82 281.69 646.99 275.85 649.15 270.66 651.53 265.47 651.53 265.47 662.77 261.36 674.02 257.47 674.02 257.47 678.35 256.17 678.35 256.17 689.81 252.49 699.32 249.68 708.62 247.09 708.62 247.09 708.62 247.09"/>
    <polygon class="cls-1" points="718.14 171.4 718.14 171.4 713.38 181.78 708.41 192.81 702.13 205.35 698.67 212.06 695.21 218.11 691.75 224.16 688.51 229.79 685.05 234.54 683.54 236.92 682.24 238.65 680.72 240.17 679.21 241.47 677.91 242.55 676.83 243.19 676.83 243.19 674.24 244.28 671.64 245.79 668.61 247.95 665.59 250.11 659.1 255.09 652.83 260.49 647.2 265.68 642.45 269.79 638.12 274.12 643.74 283.2 643.74 283.2 649.8 280.82 663.42 275.42 671.21 272.17 678.78 268.71 685.05 265.9 689.59 263.52 689.59 263.52 691.54 262.22 694.35 260.06 697.81 256.82 701.7 253.36 705.81 249.47 710.14 245.14 714.68 240.38 719.22 235.63 723.54 230.65 727.87 225.9 731.33 221.14 734.58 216.38 737.17 212.27 738.25 210.32 739.12 208.38 739.76 206.65 740.2 205.13 740.2 203.84 740.2 202.54 740.2 202.54 739.76 200.16 739.55 197.57 739.55 192.16 739.33 189.35 739.33 186.54 739.12 183.73 738.47 181.13 737.6 178.54 737.17 177.24 736.52 176.38 735.66 175.29 735.01 174.43 733.93 173.56 732.63 172.91 731.55 172.27 730.03 171.83 728.74 171.19 727 171.19 724.84 170.97 722.9 170.97 720.52 171.19 718.14 171.4 718.14 171.4 718.14 171.4"/>
    <polygon class="cls-2" points="718.14 171.4 718.14 171.4 713.38 181.78 708.41 192.81 702.13 205.35 698.67 212.06 695.21 218.11 691.75 224.16 688.51 229.79 685.05 234.54 683.54 236.92 682.24 238.65 680.72 240.17 679.21 241.47 677.91 242.55 676.83 243.19 676.83 243.19 674.24 244.28 671.64 245.79 668.61 247.95 665.59 250.11 659.1 255.09 652.83 260.49 647.2 265.68 642.45 269.79 638.12 274.12 643.74 283.2 643.74 283.2 649.8 280.82 663.42 275.42 671.21 272.17 678.78 268.71 685.05 265.9 689.59 263.52 689.59 263.52 691.54 262.22 694.35 260.06 697.81 256.82 701.7 253.36 705.81 249.47 710.14 245.14 714.68 240.38 719.22 235.63 723.54 230.65 727.87 225.9 731.33 221.14 734.58 216.38 737.17 212.27 738.25 210.32 739.12 208.38 739.76 206.65 740.2 205.13 740.2 203.84 740.2 202.54 740.2 202.54 739.76 200.16 739.55 197.57 739.55 192.16 739.33 189.35 739.33 186.54 739.12 183.73 738.47 181.13 737.6 178.54 737.17 177.24 736.52 176.38 735.66 175.29 735.01 174.43 733.93 173.56 732.63 172.91 731.55 172.27 730.03 171.83 728.74 171.19 727 171.19 724.84 170.97 722.9 170.97 720.52 171.19 718.14 171.4 718.14 171.4 718.14 171.4"/>
    <polygon class="cls-4" points="728.95 166.21 728.95 166.21 727 166.86 724.84 167.72 722.25 169.02 719.22 170.97 717.71 172.27 716.19 173.56 714.46 175.08 712.95 177.02 711.43 178.75 709.92 180.7 709.92 180.7 704.73 189.35 700.19 197.13 695.86 204.49 695.86 204.49 696.73 205.35 698.67 207.73 700.19 209.03 702.13 210.54 704.51 212.06 707.11 213.57 710.14 215.08 713.38 216.38 717.27 217.25 719.22 217.68 721.38 217.89 723.54 218.11 725.92 218.33 728.3 218.33 730.68 218.11 733.49 217.89 736.09 217.25 738.9 216.81 741.93 215.95 741.93 215.95 744.74 215.3 747.33 214 749.5 212.7 751.23 211.41 752.96 209.68 754.25 207.95 755.55 206.22 756.42 204.27 756.85 202.32 757.28 200.16 757.5 198.22 757.5 195.84 757.28 193.89 756.85 191.51 756.42 189.35 755.55 187.19 754.69 185.24 753.39 183.08 752.31 180.92 751.01 178.97 749.71 177.24 747.98 175.29 746.25 173.78 744.74 172.27 742.79 170.75 740.85 169.46 738.9 168.59 737.17 167.51 735.22 166.86 733.06 166.43 730.9 166.21 728.95 166.21 728.95 166.21 728.95 166.21"/>
    <polygon class="cls-2" points="728.95 166.21 728.95 166.21 727 166.86 724.84 167.72 722.25 169.02 719.22 170.97 717.71 172.27 716.19 173.56 714.46 175.08 712.95 177.02 711.43 178.75 709.92 180.7 709.92 180.7 704.73 189.35 700.19 197.13 695.86 204.49 695.86 204.49 696.73 205.35 698.67 207.73 700.19 209.03 702.13 210.54 704.51 212.06 707.11 213.57 710.14 215.08 713.38 216.38 717.27 217.25 719.22 217.68 721.38 217.89 723.54 218.11 725.92 218.33 728.3 218.33 730.68 218.11 733.49 217.89 736.09 217.25 738.9 216.81 741.93 215.95 741.93 215.95 744.74 215.3 747.33 214 749.5 212.7 751.23 211.41 752.96 209.68 754.25 207.95 755.55 206.22 756.42 204.27 756.85 202.32 757.28 200.16 757.5 198.22 757.5 195.84 757.28 193.89 756.85 191.51 756.42 189.35 755.55 187.19 754.69 185.24 753.39 183.08 752.31 180.92 751.01 178.97 749.71 177.24 747.98 175.29 746.25 173.78 744.74 172.27 742.79 170.75 740.85 169.46 738.9 168.59 737.17 167.51 735.22 166.86 733.06 166.43 730.9 166.21 728.95 166.21 728.95 166.21 728.95 166.21"/>
    <polygon class="cls-1" points="638.12 273.9 638.12 273.9 637.69 274.55 636.61 276.28 635.09 279.09 634.44 280.61 634.01 282.77 633.36 284.71 633.15 286.88 632.93 289.25 633.36 291.63 633.79 294.23 634.66 296.82 635.96 299.42 636.82 300.5 637.69 301.8 645.69 279.52 638.12 273.9 638.12 273.9"/>
    <polygon class="cls-2" points="638.12 273.9 638.12 273.9 637.69 274.55 636.61 276.28 635.09 279.09 634.44 280.61 634.01 282.77 633.36 284.71 633.15 286.88 632.93 289.25 633.36 291.63 633.79 294.23 634.66 296.82 635.96 299.42 636.82 300.5 637.69 301.8 645.69 279.52 638.12 273.9 638.12 273.9"/>
    <polygon class="cls-1" points="628.82 135.72 628.82 135.72 628.39 138.75 628.17 141.99 628.17 146.1 628.39 150.64 628.39 152.8 628.82 155.18 629.25 157.34 629.9 159.72 630.77 161.67 631.85 163.62 594.87 163.62 594.87 163.62 595.3 161.02 596.16 154.53 596.6 150.21 596.81 145.88 596.81 141.78 596.6 139.61 596.38 137.67 596.38 137.67 596.38 136.8 596.6 135.94 596.81 135.29 597.46 134.64 598.11 134.21 598.98 133.78 599.84 133.56 600.71 133.13 603.3 132.91 605.9 132.69 608.92 132.69 612.17 132.91 618.22 133.78 623.41 134.42 628.82 135.72 628.82 135.72 628.82 135.72"/>
    <polygon class="cls-2" points="628.82 135.72 628.82 135.72 628.39 138.75 628.17 141.99 628.17 146.1 628.39 150.64 628.39 152.8 628.82 155.18 629.25 157.34 629.9 159.72 630.77 161.67 631.85 163.62 594.87 163.62 594.87 163.62 595.3 161.02 596.16 154.53 596.6 150.21 596.81 145.88 596.81 141.78 596.6 139.61 596.38 137.67 596.38 137.67 596.38 136.8 596.6 135.94 596.81 135.29 597.46 134.64 598.11 134.21 598.98 133.78 599.84 133.56 600.71 133.13 603.3 132.91 605.9 132.69 608.92 132.69 612.17 132.91 618.22 133.78 623.41 134.42 628.82 135.72 628.82 135.72 628.82 135.72"/>
    <polygon class="cls-1" points="596.16 137.67 596.16 137.67 595.73 137.88 595.08 137.88 594.22 137.88 593.57 137.88 592.49 137.67 591.41 136.8 590.11 135.72 589.03 134.64 587.73 132.91 586.65 130.53 585.57 127.5 584.49 124.04 583.62 119.94 582.76 114.75 582.32 108.91 582.32 108.91 581.89 104.15 581.89 100.04 581.89 96.36 581.89 92.9 582.32 90.09 582.97 87.5 583.4 86.2 584.05 85.34 584.49 84.25 585.13 83.39 586 82.74 586.87 81.88 587.73 81.23 588.6 80.58 591.19 79.5 593.78 78.85 597.25 77.98 600.92 77.55 605.03 77.33 609.79 77.12 609.79 77.12 614.55 77.12 618.66 77.33 622.33 77.55 625.79 77.98 628.6 78.63 630.98 79.5 633.15 80.36 635.09 81.44 636.61 82.52 637.69 83.82 638.55 85.12 639.42 86.63 640.07 88.15 640.28 89.66 640.72 91.39 640.72 93.12 640.72 93.12 640.5 97.44 640.28 101.55 639.85 105.45 639.2 108.69 638.34 111.93 637.47 114.96 636.39 117.56 635.09 120.15 634.01 122.31 632.5 124.26 630.98 126.21 629.25 127.72 627.74 129.23 626.01 130.53 624.28 131.61 622.33 132.48 620.39 133.56 618.66 134.21 614.76 135.29 611.09 135.94 607.41 136.37 600.92 137.23 598.33 137.23 596.16 137.67 596.16 137.67 596.16 137.67"/>
    <polygon class="cls-2" points="596.16 137.67 596.16 137.67 595.73 137.88 595.08 137.88 594.22 137.88 593.57 137.88 592.49 137.67 591.41 136.8 590.11 135.72 589.03 134.64 587.73 132.91 586.65 130.53 585.57 127.5 584.49 124.04 583.62 119.94 582.76 114.75 582.32 108.91 582.32 108.91 581.89 104.15 581.89 100.04 581.89 96.36 581.89 92.9 582.32 90.09 582.97 87.5 583.4 86.2 584.05 85.34 584.49 84.25 585.13 83.39 586 82.74 586.87 81.88 587.73 81.23 588.6 80.58 591.19 79.5 593.78 78.85 597.25 77.98 600.92 77.55 605.03 77.33 609.79 77.12 609.79 77.12 614.55 77.12 618.66 77.33 622.33 77.55 625.79 77.98 628.6 78.63 630.98 79.5 633.15 80.36 635.09 81.44 636.61 82.52 637.69 83.82 638.55 85.12 639.42 86.63 640.07 88.15 640.28 89.66 640.72 91.39 640.72 93.12 640.72 93.12 640.5 97.44 640.28 101.55 639.85 105.45 639.2 108.69 638.34 111.93 637.47 114.96 636.39 117.56 635.09 120.15 634.01 122.31 632.5 124.26 630.98 126.21 629.25 127.72 627.74 129.23 626.01 130.53 624.28 131.61 622.33 132.48 620.39 133.56 618.66 134.21 614.76 135.29 611.09 135.94 607.41 136.37 600.92 137.23 598.33 137.23 596.16 137.67 596.16 137.67 596.16 137.67"/>
    <polygon class="cls-1" points="619.3 62.41 619.3 62.41 623.41 63.71 625.58 64.58 627.52 65.66 629.69 66.52 631.85 67.82 633.79 69.12 635.52 70.63 637.47 72.14 638.99 73.88 640.5 75.82 641.8 77.77 642.88 79.71 643.53 82.09 643.96 84.47 644.17 86.85 644.17 86.85 644.17 91.61 643.96 96.15 643.53 100.69 643.09 104.58 642.45 108.04 641.8 111.28 641.36 112.37 640.93 113.66 640.28 114.31 639.63 115.18 639.63 115.18 639.2 115.83 638.55 116.69 637.69 119.07 636.82 122.1 636.17 123.61 635.52 125.13 634.66 126.42 633.79 127.94 632.71 129.02 631.2 130.31 629.47 131.4 627.52 132.04 625.36 132.48 622.76 132.69 622.76 132.69 620.17 132.48 617.58 132.26 615.2 131.83 612.82 131.18 610.22 130.53 607.84 129.45 605.9 128.59 603.73 127.5 601.79 126.21 600.06 124.91 598.54 123.61 597.03 122.1 595.73 120.58 594.65 119.07 593.78 117.56 593.35 116.26 593.35 116.26 592.92 114.75 592.27 113.88 591.41 113.02 590.54 112.37 589.68 111.72 588.38 111.5 586.43 110.85 584.27 110.42 582.97 110.2 581.89 109.77 581.03 108.91 580.59 108.04 579.94 106.96 579.3 105.66 579.3 105.66 578 99.82 577.57 97.23 577.35 94.85 577.13 92.47 576.92 90.09 577.13 88.15 577.57 85.98 578 84.25 578.65 82.31 579.51 80.36 580.59 78.63 581.67 76.9 583.19 75.17 584.92 73.66 586.65 71.93 586.65 71.93 590.33 69.12 594 66.95 596.16 65.66 598.11 64.58 600.06 63.71 602.22 63.06 604.38 62.41 606.54 61.98 608.49 61.55 610.65 61.33 612.82 61.33 614.98 61.55 617.14 61.98 619.3 62.41 619.3 62.41 619.3 62.41"/>
    <polygon class="cls-2" points="619.3 62.41 619.3 62.41 623.41 63.71 625.58 64.58 627.52 65.66 629.69 66.52 631.85 67.82 633.79 69.12 635.52 70.63 637.47 72.14 638.99 73.88 640.5 75.82 641.8 77.77 642.88 79.71 643.53 82.09 643.96 84.47 644.17 86.85 644.17 86.85 644.17 91.61 643.96 96.15 643.53 100.69 643.09 104.58 642.45 108.04 641.8 111.28 641.36 112.37 640.93 113.66 640.28 114.31 639.63 115.18 639.63 115.18 639.2 115.83 638.55 116.69 637.69 119.07 636.82 122.1 636.17 123.61 635.52 125.13 634.66 126.42 633.79 127.94 632.71 129.02 631.2 130.31 629.47 131.4 627.52 132.04 625.36 132.48 622.76 132.69 622.76 132.69 620.17 132.48 617.58 132.26 615.2 131.83 612.82 131.18 610.22 130.53 607.84 129.45 605.9 128.59 603.73 127.5 601.79 126.21 600.06 124.91 598.54 123.61 597.03 122.1 595.73 120.58 594.65 119.07 593.78 117.56 593.35 116.26 593.35 116.26 592.92 114.75 592.27 113.88 591.41 113.02 590.54 112.37 589.68 111.72 588.38 111.5 586.43 110.85 584.27 110.42 582.97 110.2 581.89 109.77 581.03 108.91 580.59 108.04 579.94 106.96 579.3 105.66 579.3 105.66 578 99.82 577.57 97.23 577.35 94.85 577.13 92.47 576.92 90.09 577.13 88.15 577.57 85.98 578 84.25 578.65 82.31 579.51 80.36 580.59 78.63 581.67 76.9 583.19 75.17 584.92 73.66 586.65 71.93 586.65 71.93 590.33 69.12 594 66.95 596.16 65.66 598.11 64.58 600.06 63.71 602.22 63.06 604.38 62.41 606.54 61.98 608.49 61.55 610.65 61.33 612.82 61.33 614.98 61.55 617.14 61.98 619.3 62.41 619.3 62.41 619.3 62.41"/>
    <polygon class="cls-1" points="640.93 110.85 640.93 110.85 641.36 110.42 641.8 110.2 642.45 109.77 643.31 109.77 643.96 109.99 644.82 110.42 645.26 111.28 645.26 111.28 645.26 111.93 645.26 112.8 645.04 113.88 644.82 114.75 643.53 117.12 642.01 119.29 640.5 121.02 639.63 121.88 638.77 122.31 638.12 122.53 637.25 122.53 636.61 122.31 636.17 121.88 636.17 121.88 635.74 121.02 635.52 120.37 635.52 119.5 635.74 118.64 635.96 117.77 636.17 116.69 637.25 115.18 638.55 113.45 639.63 111.93 640.93 110.85 640.93 110.85 640.93 110.85"/>
    <polygon class="cls-2" points="640.93 110.85 640.93 110.85 641.36 110.42 641.8 110.2 642.45 109.77 643.31 109.77 643.96 109.99 644.82 110.42 645.26 111.28 645.26 111.28 645.26 111.93 645.26 112.8 645.04 113.88 644.82 114.75 643.53 117.12 642.01 119.29 640.5 121.02 639.63 121.88 638.77 122.31 638.12 122.53 637.25 122.53 636.61 122.31 636.17 121.88 636.17 121.88 635.74 121.02 635.52 120.37 635.52 119.5 635.74 118.64 635.96 117.77 636.17 116.69 637.25 115.18 638.55 113.45 639.63 111.93 640.93 110.85 640.93 110.85 640.93 110.85"/>
    <polygon class="cls-5" points="709.7 218.76 709.7 309.37 490.63 303.96 490.63 303.96 489.98 303.96 489.33 303.53 487.81 302.88 485.87 301.58 483.92 300.07 481.76 298.34 479.38 295.96 475.06 291.2 470.73 286.44 468.78 284.06 467.27 281.69 465.76 279.52 464.89 277.58 464.24 275.85 464.03 275.2 464.03 274.77 475.7 256.38 475.7 256.38 477.87 253.36 480.68 249.9 483.49 246.44 486.73 242.98 492.36 237.14 496.03 233.68 496.03 233.68 508.14 223.52 515.07 217.03 522.42 210.32 529.34 203.62 532.37 200.59 535.39 197.57 537.56 194.76 539.29 192.16 540.8 190 541.45 188.92 541.66 188.05 541.66 188.05 542.75 184.81 543.83 181.78 544.91 178.97 546.21 176.38 547.29 174 548.37 172.05 549.67 170.32 550.97 168.37 552.05 166.86 553.34 165.56 554.86 164.26 556.15 163.18 557.45 162.53 558.75 161.89 560.05 161.24 561.35 160.59 561.35 160.59 565.46 159.29 569.56 157.99 573.89 156.91 578.21 156.05 582.76 154.97 587.08 154.32 591.84 153.67 596.38 153.02 596.38 153.02 603.95 152.59 603.95 152.59 610.22 152.16 616.28 151.94 622.55 152.16 628.39 152.16 628.39 152.16 635.09 153.02 641.15 153.67 646.99 154.75 652.61 156.05 657.58 157.56 659.96 158.43 661.91 159.29 664.07 160.37 666.02 161.24 667.75 162.32 669.26 163.62 669.26 163.62 670.78 164.7 672.72 166.64 674.45 168.81 676.83 171.4 681.81 177.89 687 185.24 692.62 193.24 698.46 201.89 709.7 218.76 709.7 218.76 709.7 218.76"/>
    <polygon class="cls-2" points="709.7 218.76 709.7 309.37 490.63 303.96 490.63 303.96 489.98 303.96 489.33 303.53 487.81 302.88 485.87 301.58 483.92 300.07 481.76 298.34 479.38 295.96 475.06 291.2 470.73 286.44 468.78 284.06 467.27 281.69 465.76 279.52 464.89 277.58 464.24 275.85 464.03 275.2 464.03 274.77 475.7 256.38 475.7 256.38 477.87 253.36 480.68 249.9 483.49 246.44 486.73 242.98 492.36 237.14 496.03 233.68 496.03 233.68 508.14 223.52 515.07 217.03 522.42 210.32 529.34 203.62 532.37 200.59 535.39 197.57 537.56 194.76 539.29 192.16 540.8 190 541.45 188.92 541.66 188.05 541.66 188.05 542.75 184.81 543.83 181.78 544.91 178.97 546.21 176.38 547.29 174 548.37 172.05 549.67 170.32 550.97 168.37 552.05 166.86 553.34 165.56 554.86 164.26 556.15 163.18 557.45 162.53 558.75 161.89 560.05 161.24 561.35 160.59 561.35 160.59 565.46 159.29 569.56 157.99 573.89 156.91 578.21 156.05 582.76 154.97 587.08 154.32 591.84 153.67 596.38 153.02 596.38 153.02 603.95 152.59 603.95 152.59 610.22 152.16 616.28 151.94 622.55 152.16 628.39 152.16 628.39 152.16 635.09 153.02 641.15 153.67 646.99 154.75 652.61 156.05 657.58 157.56 659.96 158.43 661.91 159.29 664.07 160.37 666.02 161.24 667.75 162.32 669.26 163.62 669.26 163.62 670.78 164.7 672.72 166.64 674.45 168.81 676.83 171.4 681.81 177.89 687 185.24 692.62 193.24 698.46 201.89 709.7 218.76 709.7 218.76 709.7 218.76"/>
    <polygon class="cls-3" points="608.06 55.28 608.06 55.28 610.87 55.49 613.9 55.49 616.71 55.28 619.52 55.06 619.52 55.06 622.55 54.63 626.01 54.41 629.47 54.41 631.42 54.63 633.15 54.63 634.88 55.06 636.61 55.49 638.34 56.14 639.85 57.01 641.36 57.87 642.88 58.95 644.17 60.25 645.26 61.55 645.26 61.55 647.2 64.58 648.93 67.39 650.23 70.2 651.53 72.79 652.39 75.39 653.26 77.98 653.69 80.58 654.12 82.96 654.12 85.34 654.12 87.71 654.12 89.66 653.69 92.04 653.26 93.98 652.83 95.93 651.53 99.82 650.23 103.28 648.72 106.53 645.91 112.8 644.82 115.61 643.96 117.99 643.96 119.29 643.96 120.37 643.96 121.45 644.17 122.53 644.17 122.53 644.82 123.61 645.26 124.69 646.77 127.07 648.5 129.23 650.66 131.61 655.64 136.8 660.61 141.99 662.77 144.59 664.94 147.18 667.1 149.78 668.61 152.59 669.05 153.88 669.48 155.4 669.91 156.91 670.13 157.99 670.13 159.51 670.13 160.81 669.7 162.1 669.26 163.62 669.26 163.62 667.75 166.64 666.45 169.46 664.94 172.05 663.42 174.21 661.69 176.16 659.96 177.67 658.45 178.75 656.5 179.84 654.77 180.48 652.83 181.13 651.1 181.35 648.93 181.35 646.99 181.35 645.04 180.92 643.09 180.48 640.93 179.84 638.77 179.19 636.61 178.54 632.28 176.38 627.96 174.21 623.41 171.83 619.09 169.46 614.33 167.08 610 165.13 605.25 163.18 605.25 163.18 605.03 163.18 604.38 162.75 604.17 162.32 603.95 161.89 603.52 160.37 603.3 158.43 603.52 156.05 603.73 153.67 604.38 150.86 605.46 148.05 606.76 145.02 608.49 141.99 610.65 138.75 613.25 135.72 614.76 134.21 616.06 132.69 617.79 131.18 619.52 129.67 621.47 128.15 623.41 127.07 625.58 125.77 627.96 124.69 627.96 124.69 628.39 124.04 628.82 123.83 628.82 123.39 628.39 122.96 627.96 122.31 627.09 121.88 625.14 121.02 622.33 119.94 619.09 118.85 610.87 116.69 594 112.58 586.87 110.64 584.49 109.77 582.54 108.91 582.54 108.91 580.81 108.04 579.08 106.96 577.57 105.88 576.27 104.58 575.19 103.07 574.32 101.77 573.46 100.47 573.02 98.96 572.59 97.44 572.38 95.93 572.16 94.2 572.16 92.69 572.38 89.44 572.81 86.2 572.81 86.2 573.46 83.61 574.32 80.58 575.4 77.98 576.7 75.17 578.21 72.36 579.94 69.55 581.89 67.17 583.84 64.58 586.22 62.41 588.6 60.47 591.62 58.74 594.43 57.22 595.95 56.58 597.68 56.14 599.19 55.71 600.92 55.28 602.65 55.28 604.38 55.28 606.33 55.28 608.06 55.28 608.06 55.28 608.06 55.28"/>
    <polygon class="cls-2" points="608.06 55.28 608.06 55.28 610.87 55.49 613.9 55.49 616.71 55.28 619.52 55.06 619.52 55.06 622.55 54.63 626.01 54.41 629.47 54.41 631.42 54.63 633.15 54.63 634.88 55.06 636.61 55.49 638.34 56.14 639.85 57.01 641.36 57.87 642.88 58.95 644.17 60.25 645.26 61.55 645.26 61.55 647.2 64.58 648.93 67.39 650.23 70.2 651.53 72.79 652.39 75.39 653.26 77.98 653.69 80.58 654.12 82.96 654.12 85.34 654.12 87.71 654.12 89.66 653.69 92.04 653.26 93.98 652.83 95.93 651.53 99.82 650.23 103.28 648.72 106.53 645.91 112.8 644.82 115.61 643.96 117.99 643.96 119.29 643.96 120.37 643.96 121.45 644.17 122.53 644.17 122.53 644.82 123.61 645.26 124.69 646.77 127.07 648.5 129.23 650.66 131.61 655.64 136.8 660.61 141.99 662.77 144.59 664.94 147.18 667.1 149.78 668.61 152.59 669.05 153.88 669.48 155.4 669.91 156.91 670.13 157.99 670.13 159.51 670.13 160.81 669.7 162.1 669.26 163.62 669.26 163.62 667.75 166.64 666.45 169.46 664.94 172.05 663.42 174.21 661.69 176.16 659.96 177.67 658.45 178.75 656.5 179.84 654.77 180.48 652.83 181.13 651.1 181.35 648.93 181.35 646.99 181.35 645.04 180.92 643.09 180.48 640.93 179.84 638.77 179.19 636.61 178.54 632.28 176.38 627.96 174.21 623.41 171.83 619.09 169.46 614.33 167.08 610 165.13 605.25 163.18 605.25 163.18 605.03 163.18 604.38 162.75 604.17 162.32 603.95 161.89 603.52 160.37 603.3 158.43 603.52 156.05 603.73 153.67 604.38 150.86 605.46 148.05 606.76 145.02 608.49 141.99 610.65 138.75 613.25 135.72 614.76 134.21 616.06 132.69 617.79 131.18 619.52 129.67 621.47 128.15 623.41 127.07 625.58 125.77 627.96 124.69 627.96 124.69 628.39 124.04 628.82 123.83 628.82 123.39 628.39 122.96 627.96 122.31 627.09 121.88 625.14 121.02 622.33 119.94 619.09 118.85 610.87 116.69 594 112.58 586.87 110.64 584.49 109.77 582.54 108.91 582.54 108.91 580.81 108.04 579.08 106.96 577.57 105.88 576.27 104.58 575.19 103.07 574.32 101.77 573.46 100.47 573.02 98.96 572.59 97.44 572.38 95.93 572.16 94.2 572.16 92.69 572.38 89.44 572.81 86.2 572.81 86.2 573.46 83.61 574.32 80.58 575.4 77.98 576.7 75.17 578.21 72.36 579.94 69.55 581.89 67.17 583.84 64.58 586.22 62.41 588.6 60.47 591.62 58.74 594.43 57.22 595.95 56.58 597.68 56.14 599.19 55.71 600.92 55.28 602.65 55.28 604.38 55.28 606.33 55.28 608.06 55.28 608.06 55.28 608.06 55.28"/>
    <polygon class="cls-1" points="595.3 111.72 595.3 111.72 595.3 111.07 595.08 110.2 595.08 109.56 594.87 108.69 594.22 108.04 593.35 107.83 592.92 107.61 592.27 107.61 592.27 107.61 590.76 107.83 589.46 108.47 588.6 109.12 587.51 109.99 586.87 111.07 586.22 112.15 586 113.45 585.57 114.75 585.57 115.83 585.57 117.12 586 118.2 586.22 119.29 586.65 120.15 587.08 121.02 587.95 121.45 588.6 121.88 588.6 121.88 589.46 121.88 590.33 121.67 590.97 121.23 591.62 120.58 592.27 119.72 592.92 118.85 593.78 117.12 594.22 114.96 594.87 113.45 595.3 111.72 595.3 111.72 595.3 111.72"/>
    <polygon class="cls-2" points="595.3 111.72 595.3 111.72 595.3 111.07 595.08 110.2 595.08 109.56 594.87 108.69 594.22 108.04 593.35 107.83 592.92 107.61 592.27 107.61 592.27 107.61 590.76 107.83 589.46 108.47 588.6 109.12 587.51 109.99 586.87 111.07 586.22 112.15 586 113.45 585.57 114.75 585.57 115.83 585.57 117.12 586 118.2 586.22 119.29 586.65 120.15 587.08 121.02 587.95 121.45 588.6 121.88 588.6 121.88 589.46 121.88 590.33 121.67 590.97 121.23 591.62 120.58 592.27 119.72 592.92 118.85 593.78 117.12 594.22 114.96 594.87 113.45 595.3 111.72 595.3 111.72 595.3 111.72"/>
    <polygon class="cls-1" points="316.1 98.96 316.1 98.96 316.32 102.2 316.75 105.88 316.75 110.2 316.53 115.18 316.1 117.56 315.67 120.15 315.24 122.75 314.59 125.13 313.72 127.29 312.64 129.23 352.65 129.23 352.65 129.23 352 126.42 351.57 123.18 351.13 119.29 350.7 114.96 350.49 110.2 350.49 105.45 350.7 103.28 350.92 101.12 350.92 101.12 350.92 100.26 350.7 99.39 350.27 98.53 349.84 98.09 349.19 97.23 348.11 96.8 347.24 96.58 346.16 96.15 343.57 95.72 340.54 95.72 337.29 95.72 334.05 96.15 330.59 96.36 327.35 96.58 321.51 97.66 316.1 98.96 316.1 98.96 316.1 98.96"/>
    <polygon class="cls-2" points="316.1 98.96 316.1 98.96 316.32 102.2 316.75 105.88 316.75 110.2 316.53 115.18 316.1 117.56 315.67 120.15 315.24 122.75 314.59 125.13 313.72 127.29 312.64 129.23 352.65 129.23 352.65 129.23 352 126.42 351.57 123.18 351.13 119.29 350.7 114.96 350.49 110.2 350.49 105.45 350.7 103.28 350.92 101.12 350.92 101.12 350.92 100.26 350.7 99.39 350.27 98.53 349.84 98.09 349.19 97.23 348.11 96.8 347.24 96.58 346.16 96.15 343.57 95.72 340.54 95.72 337.29 95.72 334.05 96.15 330.59 96.36 327.35 96.58 321.51 97.66 316.1 98.96 316.1 98.96 316.1 98.96"/>
    <polygon class="cls-1" points="333.62 108.26 333.62 108.26 334.7 108.26 336.21 108.04 338.16 107.39 340.32 106.74 342.92 105.88 345.73 104.58 348.76 102.85 351.57 100.69 353.08 99.61 354.38 98.09 355.68 96.8 356.97 95.07 358.49 93.34 359.57 91.39 360.65 89.44 361.95 87.28 362.81 84.9 363.68 82.31 364.33 79.5 365.19 76.69 365.63 73.66 365.84 70.2 365.84 70.2 366.27 65.22 366.27 60.68 366.27 56.79 366.27 53.12 365.63 49.87 365.19 47.06 364.54 45.76 364.11 44.68 363.46 43.82 362.81 42.73 361.95 41.87 361.08 41.01 360 40.36 358.92 39.71 357.62 39.06 356.32 38.41 353.51 37.55 349.84 37.11 345.94 36.46 341.19 36.25 336 36.03 336 36.03 331.24 36.03 326.7 36.03 322.59 36.25 319.13 37.11 316.1 37.55 313.5 38.41 311.13 39.49 309.18 40.57 307.45 41.87 306.15 43.17 304.85 44.47 304.42 46.2 303.56 47.92 303.34 49.66 302.91 51.17 302.91 53.12 302.91 53.12 302.91 57.87 303.12 62.2 303.56 66.52 303.77 70.42 304.42 74.09 304.85 77.55 305.5 80.36 306.15 83.39 307.02 85.98 307.88 88.58 308.75 90.74 309.61 92.9 310.69 94.85 311.77 96.36 312.86 97.88 313.94 99.17 315.24 100.69 316.53 101.55 317.61 102.64 318.91 103.5 321.51 105.01 323.88 105.88 326.48 106.74 328.86 107.39 333.62 108.26 333.62 108.26 333.62 108.26"/>
    <polygon class="cls-2" points="333.62 108.26 333.62 108.26 334.7 108.26 336.21 108.04 338.16 107.39 340.32 106.74 342.92 105.88 345.73 104.58 348.76 102.85 351.57 100.69 353.08 99.61 354.38 98.09 355.68 96.8 356.97 95.07 358.49 93.34 359.57 91.39 360.65 89.44 361.95 87.28 362.81 84.9 363.68 82.31 364.33 79.5 365.19 76.69 365.63 73.66 365.84 70.2 365.84 70.2 366.27 65.22 366.27 60.68 366.27 56.79 366.27 53.12 365.63 49.87 365.19 47.06 364.54 45.76 364.11 44.68 363.46 43.82 362.81 42.73 361.95 41.87 361.08 41.01 360 40.36 358.92 39.71 357.62 39.06 356.32 38.41 353.51 37.55 349.84 37.11 345.94 36.46 341.19 36.25 336 36.03 336 36.03 331.24 36.03 326.7 36.03 322.59 36.25 319.13 37.11 316.1 37.55 313.5 38.41 311.13 39.49 309.18 40.57 307.45 41.87 306.15 43.17 304.85 44.47 304.42 46.2 303.56 47.92 303.34 49.66 302.91 51.17 302.91 53.12 302.91 53.12 302.91 57.87 303.12 62.2 303.56 66.52 303.77 70.42 304.42 74.09 304.85 77.55 305.5 80.36 306.15 83.39 307.02 85.98 307.88 88.58 308.75 90.74 309.61 92.9 310.69 94.85 311.77 96.36 312.86 97.88 313.94 99.17 315.24 100.69 316.53 101.55 317.61 102.64 318.91 103.5 321.51 105.01 323.88 105.88 326.48 106.74 328.86 107.39 333.62 108.26 333.62 108.26 333.62 108.26"/>
    <polygon class="cls-1" points="326.05 20.03 326.05 20.03 323.88 20.68 321.51 21.33 319.56 22.41 317.18 23.27 315.02 24.57 312.64 25.87 310.48 27.38 308.53 28.9 306.58 30.63 304.85 32.36 303.34 34.3 302.04 36.46 300.75 38.63 300.1 41.22 299.45 43.82 299.23 46.41 299.23 46.41 299.23 51.38 299.45 56.36 300.1 61.12 300.53 65.44 300.96 69.12 302.04 72.58 302.26 73.88 302.91 74.96 303.56 76.04 303.99 76.69 303.99 76.69 304.85 77.55 305.5 78.85 307.88 82.31 310.26 86.42 311.77 88.58 313.5 90.74 315.24 92.9 317.18 95.07 319.34 97.23 321.51 98.96 323.88 100.47 325.4 100.91 326.48 101.34 327.78 101.99 329.29 102.2 330.59 102.42 332.1 102.42 332.1 102.42 334.7 102.42 337.29 101.99 339.67 101.77 341.83 101.12 343.78 100.47 345.73 99.61 347.24 98.96 348.76 97.88 350.27 96.58 351.57 95.5 352.65 94.2 353.73 92.9 354.6 91.39 355.46 89.88 355.89 88.36 356.32 86.63 356.32 86.63 356.97 85.34 357.62 84.04 358.27 82.52 358.92 81.23 360.87 78.85 362.81 76.69 364.76 74.52 366.49 72.14 367.14 70.85 368 69.55 368.65 68.04 369.08 66.52 369.08 66.52 370.38 60.25 371.03 57.44 371.25 54.84 371.46 52.25 371.46 49.66 371.46 47.49 371.03 45.33 370.6 43.17 369.95 41.44 368.87 39.27 367.79 37.55 366.49 35.6 364.76 33.87 363.25 31.92 361.08 30.41 361.08 30.41 357.19 27.38 355.24 25.87 353.08 24.57 351.13 23.27 348.76 22.41 346.81 21.54 344.43 20.68 342.27 20.03 340.11 19.6 337.73 19.16 335.35 18.95 332.97 18.95 330.59 18.95 328.43 19.6 326.05 20.03 326.05 20.03 326.05 20.03"/>
    <polygon class="cls-2" points="326.05 20.03 326.05 20.03 323.88 20.68 321.51 21.33 319.56 22.41 317.18 23.27 315.02 24.57 312.64 25.87 310.48 27.38 308.53 28.9 306.58 30.63 304.85 32.36 303.34 34.3 302.04 36.46 300.75 38.63 300.1 41.22 299.45 43.82 299.23 46.41 299.23 46.41 299.23 51.38 299.45 56.36 300.1 61.12 300.53 65.44 300.96 69.12 302.04 72.58 302.26 73.88 302.91 74.96 303.56 76.04 303.99 76.69 303.99 76.69 304.85 77.55 305.5 78.85 307.88 82.31 310.26 86.42 311.77 88.58 313.5 90.74 315.24 92.9 317.18 95.07 319.34 97.23 321.51 98.96 323.88 100.47 325.4 100.91 326.48 101.34 327.78 101.99 329.29 102.2 330.59 102.42 332.1 102.42 332.1 102.42 334.7 102.42 337.29 101.99 339.67 101.77 341.83 101.12 343.78 100.47 345.73 99.61 347.24 98.96 348.76 97.88 350.27 96.58 351.57 95.5 352.65 94.2 353.73 92.9 354.6 91.39 355.46 89.88 355.89 88.36 356.32 86.63 356.32 86.63 356.97 85.34 357.62 84.04 358.27 82.52 358.92 81.23 360.87 78.85 362.81 76.69 364.76 74.52 366.49 72.14 367.14 70.85 368 69.55 368.65 68.04 369.08 66.52 369.08 66.52 370.38 60.25 371.03 57.44 371.25 54.84 371.46 52.25 371.46 49.66 371.46 47.49 371.03 45.33 370.6 43.17 369.95 41.44 368.87 39.27 367.79 37.55 366.49 35.6 364.76 33.87 363.25 31.92 361.08 30.41 361.08 30.41 357.19 27.38 355.24 25.87 353.08 24.57 351.13 23.27 348.76 22.41 346.81 21.54 344.43 20.68 342.27 20.03 340.11 19.6 337.73 19.16 335.35 18.95 332.97 18.95 330.59 18.95 328.43 19.6 326.05 20.03 326.05 20.03 326.05 20.03"/>
    <polygon class="cls-1" points="302.91 72.14 302.91 72.14 302.48 71.71 301.61 71.28 301.18 71.06 300.31 71.06 299.45 71.28 299.01 71.28 298.8 71.71 298.58 72.14 298.15 72.79 298.15 72.79 298.15 73.66 298.15 74.52 298.58 75.39 298.8 76.69 300.1 79.06 301.61 81.44 302.48 82.31 303.34 83.17 304.2 84.04 305.07 84.69 305.94 84.9 306.8 84.9 307.23 84.69 307.88 84.25 307.88 84.25 308.31 83.39 308.53 82.52 308.53 81.44 308.31 80.79 307.88 79.5 307.67 78.63 306.37 76.69 305.29 74.96 303.99 73.44 302.91 72.14 302.91 72.14 302.91 72.14"/>
    <polygon class="cls-2" points="302.91 72.14 302.91 72.14 302.48 71.71 301.61 71.28 301.18 71.06 300.31 71.06 299.45 71.28 299.01 71.28 298.8 71.71 298.58 72.14 298.15 72.79 298.15 72.79 298.15 73.66 298.15 74.52 298.58 75.39 298.8 76.69 300.1 79.06 301.61 81.44 302.48 82.31 303.34 83.17 304.2 84.04 305.07 84.69 305.94 84.9 306.8 84.9 307.23 84.69 307.88 84.25 307.88 84.25 308.31 83.39 308.53 82.52 308.53 81.44 308.31 80.79 307.88 79.5 307.67 78.63 306.37 76.69 305.29 74.96 303.99 73.44 302.91 72.14 302.91 72.14 302.91 72.14"/>
    <polygon class="cls-4" points="271.98 129.02 271.98 129.02 274.14 127.94 276.31 126.42 278.69 125.34 281.06 124.04 284.09 123.18 286.9 122.1 289.93 121.23 293.18 120.37 296.42 119.72 300.1 118.85 307.45 117.99 315.02 117.12 323.24 116.91 331.45 116.47 339.89 116.91 348.32 117.56 356.97 118.64 365.41 119.72 369.3 120.58 373.19 121.67 377.3 122.31 381.2 123.61 384.87 124.69 388.76 125.99 388.76 125.99 390.28 126.64 391.58 127.29 393.09 128.15 394.6 129.02 395.9 130.31 397.42 131.4 398.71 132.91 400.01 134.64 401.31 136.37 402.82 138.53 404.12 140.48 405.2 143.07 406.5 145.88 407.8 148.91 408.88 152.16 410.18 155.83 410.18 155.83 410.39 156.7 411.04 157.78 412.34 160.16 414.5 162.97 417.1 165.78 420.12 169.24 423.37 172.48 430.94 179.84 438.72 186.97 446.51 193.89 453.43 199.94 459.27 204.92 459.27 204.92 461 206.43 463.38 208.59 469.43 215.08 472.68 218.76 476.14 222.65 478.73 226.11 481.54 229.57 493.87 249.47 493.87 249.47 493.87 250.11 493.65 250.76 493.22 252.49 491.92 254.66 490.63 256.82 488.68 259.41 486.73 262.01 484.36 264.6 481.98 267.41 479.6 270.01 477.22 272.39 474.62 274.77 472.46 276.71 470.3 278.44 468.35 279.74 466.62 280.61 465.97 281.04 465.32 281.04 204.51 287.31 194.56 247.52 194.56 247.52 194.34 244.92 194.13 242.55 194.13 240.17 194.56 237.79 195.21 235.63 196.07 233.46 197.15 231.09 198.67 229.14 198.67 229.14 203.43 223.52 207.97 218.33 212.08 213.78 213.59 211.84 214.46 210.54 214.46 210.54 227 190.86 235.22 178.54 243.65 165.78 252.3 153.67 256.19 148.05 260.3 142.86 263.76 138.1 267.01 134.42 269.82 131.4 271.98 129.02 271.98 129.02 271.98 129.02"/>
    <polygon class="cls-2" points="271.98 129.02 271.98 129.02 274.14 127.94 276.31 126.42 278.69 125.34 281.06 124.04 284.09 123.18 286.9 122.1 289.93 121.23 293.18 120.37 296.42 119.72 300.1 118.85 307.45 117.99 315.02 117.12 323.24 116.91 331.45 116.47 339.89 116.91 348.32 117.56 356.97 118.64 365.41 119.72 369.3 120.58 373.19 121.67 377.3 122.31 381.2 123.61 384.87 124.69 388.76 125.99 388.76 125.99 390.28 126.64 391.58 127.29 393.09 128.15 394.6 129.02 395.9 130.31 397.42 131.4 398.71 132.91 400.01 134.64 401.31 136.37 402.82 138.53 404.12 140.48 405.2 143.07 406.5 145.88 407.8 148.91 408.88 152.16 410.18 155.83 410.18 155.83 410.39 156.7 411.04 157.78 412.34 160.16 414.5 162.97 417.1 165.78 420.12 169.24 423.37 172.48 430.94 179.84 438.72 186.97 446.51 193.89 453.43 199.94 459.27 204.92 459.27 204.92 461 206.43 463.38 208.59 469.43 215.08 472.68 218.76 476.14 222.65 478.73 226.11 481.54 229.57 493.87 249.47 493.87 249.47 493.87 250.11 493.65 250.76 493.22 252.49 491.92 254.66 490.63 256.82 488.68 259.41 486.73 262.01 484.36 264.6 481.98 267.41 479.6 270.01 477.22 272.39 474.62 274.77 472.46 276.71 470.3 278.44 468.35 279.74 466.62 280.61 465.97 281.04 465.32 281.04 204.51 287.31 194.56 247.52 194.56 247.52 194.34 244.92 194.13 242.55 194.13 240.17 194.56 237.79 195.21 235.63 196.07 233.46 197.15 231.09 198.67 229.14 198.67 229.14 203.43 223.52 207.97 218.33 212.08 213.78 213.59 211.84 214.46 210.54 214.46 210.54 227 190.86 235.22 178.54 243.65 165.78 252.3 153.67 256.19 148.05 260.3 142.86 263.76 138.1 267.01 134.42 269.82 131.4 271.98 129.02 271.98 129.02 271.98 129.02"/>
    <polygon class="cls-3" points="332.75 13.33 332.75 13.33 331.67 13.11 328.86 12.89 325.18 12.68 320.43 12.68 317.61 12.89 314.8 12.89 311.99 13.54 309.18 14.19 306.15 15.06 303.34 15.92 300.53 17.43 298.15 18.95 298.15 18.95 295.77 20.89 293.82 22.84 291.66 25 289.93 27.17 288.42 29.33 287.34 31.71 286.04 34.09 284.96 36.46 283.01 41.22 281.5 46.2 279.77 50.95 278.25 55.71 278.25 55.71 277.17 57.87 276.09 59.82 274.79 61.77 273.28 63.49 270.25 66.52 267.44 69.77 266.14 71.28 264.85 72.79 263.98 74.74 263.55 76.69 263.12 78.85 263.12 81.01 263.76 83.39 264.63 86.2 264.63 86.2 266.36 89.88 268.09 92.9 270.25 95.72 272.63 98.53 275.23 101.12 278.04 103.28 281.06 105.23 284.09 106.96 287.34 108.26 290.8 109.77 294.26 110.64 297.93 111.72 301.61 112.37 305.29 113.02 309.18 113.45 313.07 113.88 316.96 113.88 320.86 113.88 324.75 113.88 328.64 113.66 336.64 112.8 344 111.72 351.13 110.42 357.62 108.91 363.89 107.18 369.08 105.66 369.08 105.66 370.17 105.23 370.6 104.8 371.03 103.93 371.25 103.28 371.25 102.42 371.03 101.55 370.6 100.47 370.38 99.61 369.73 98.74 368.87 97.66 368 96.58 366.92 95.72 366.06 94.85 364.76 94.2 363.46 93.34 362.16 92.9 362.16 92.9 360.65 92.04 359.57 90.96 358.7 89.88 358.06 88.58 357.62 86.85 357.41 85.34 357.62 83.39 357.62 81.88 358.27 79.93 358.92 78.42 359.79 76.69 360.87 74.96 361.95 73.44 363.03 72.14 364.54 71.06 366.06 70.2 366.06 70.2 368 69.33 369.73 68.04 371.25 66.74 372.76 65.44 373.84 63.93 374.92 62.63 375.57 60.9 376.22 59.39 376.65 57.66 377.09 55.93 377.09 54.41 377.09 52.68 377.09 49.22 376.44 45.76 376.44 45.76 375.57 42.52 374.71 39.06 373.19 35.81 371.9 32.57 370.17 29.33 367.79 26.3 365.41 23.27 362.81 20.68 361.3 19.38 360 18.08 358.27 17.22 356.76 16.14 355.03 15.06 353.3 14.62 351.57 13.76 349.84 13.11 347.68 12.68 345.73 12.24 343.78 12.24 341.62 12.24 339.46 12.24 337.08 12.24 335.13 12.89 332.75 13.33 332.75 13.33 332.75 13.33"/>
    <polygon class="cls-2" points="332.75 13.33 332.75 13.33 331.67 13.11 328.86 12.89 325.18 12.68 320.43 12.68 317.61 12.89 314.8 12.89 311.99 13.54 309.18 14.19 306.15 15.06 303.34 15.92 300.53 17.43 298.15 18.95 298.15 18.95 295.77 20.89 293.82 22.84 291.66 25 289.93 27.17 288.42 29.33 287.34 31.71 286.04 34.09 284.96 36.46 283.01 41.22 281.5 46.2 279.77 50.95 278.25 55.71 278.25 55.71 277.17 57.87 276.09 59.82 274.79 61.77 273.28 63.49 270.25 66.52 267.44 69.77 266.14 71.28 264.85 72.79 263.98 74.74 263.55 76.69 263.12 78.85 263.12 81.01 263.76 83.39 264.63 86.2 264.63 86.2 266.36 89.88 268.09 92.9 270.25 95.72 272.63 98.53 275.23 101.12 278.04 103.28 281.06 105.23 284.09 106.96 287.34 108.26 290.8 109.77 294.26 110.64 297.93 111.72 301.61 112.37 305.29 113.02 309.18 113.45 313.07 113.88 316.96 113.88 320.86 113.88 324.75 113.88 328.64 113.66 336.64 112.8 344 111.72 351.13 110.42 357.62 108.91 363.89 107.18 369.08 105.66 369.08 105.66 370.17 105.23 370.6 104.8 371.03 103.93 371.25 103.28 371.25 102.42 371.03 101.55 370.6 100.47 370.38 99.61 369.73 98.74 368.87 97.66 368 96.58 366.92 95.72 366.06 94.85 364.76 94.2 363.46 93.34 362.16 92.9 362.16 92.9 360.65 92.04 359.57 90.96 358.7 89.88 358.06 88.58 357.62 86.85 357.41 85.34 357.62 83.39 357.62 81.88 358.27 79.93 358.92 78.42 359.79 76.69 360.87 74.96 361.95 73.44 363.03 72.14 364.54 71.06 366.06 70.2 366.06 70.2 368 69.33 369.73 68.04 371.25 66.74 372.76 65.44 373.84 63.93 374.92 62.63 375.57 60.9 376.22 59.39 376.65 57.66 377.09 55.93 377.09 54.41 377.09 52.68 377.09 49.22 376.44 45.76 376.44 45.76 375.57 42.52 374.71 39.06 373.19 35.81 371.9 32.57 370.17 29.33 367.79 26.3 365.41 23.27 362.81 20.68 361.3 19.38 360 18.08 358.27 17.22 356.76 16.14 355.03 15.06 353.3 14.62 351.57 13.76 349.84 13.11 347.68 12.68 345.73 12.24 343.78 12.24 341.62 12.24 339.46 12.24 337.08 12.24 335.13 12.89 332.75 13.33 332.75 13.33 332.75 13.33"/>
    <polygon class="cls-1" points="358.06 71.28 358.06 71.28 358.27 70.63 358.92 69.98 359.35 69.55 360 68.9 360.87 68.9 361.3 68.9 361.52 68.9 361.95 69.12 362.81 69.77 362.81 69.77 363.03 70.42 363.68 71.28 363.68 72.14 363.89 73.66 364.11 76.25 363.68 79.28 363.46 80.58 363.03 81.88 362.6 82.96 361.95 84.04 361.52 84.69 360.87 85.12 360 85.34 359.14 85.12 359.14 85.12 358.27 84.69 357.84 83.82 357.19 82.96 356.97 81.88 356.76 80.79 356.76 79.71 356.76 77.33 357.19 74.96 357.62 73.23 358.06 71.28 358.06 71.28 358.06 71.28"/>
    <polygon class="cls-2" points="358.06 71.28 358.06 71.28 358.27 70.63 358.92 69.98 359.35 69.55 360 68.9 360.87 68.9 361.3 68.9 361.52 68.9 361.95 69.12 362.81 69.77 362.81 69.77 363.03 70.42 363.68 71.28 363.68 72.14 363.89 73.66 364.11 76.25 363.68 79.28 363.46 80.58 363.03 81.88 362.6 82.96 361.95 84.04 361.52 84.69 360.87 85.12 360 85.34 359.14 85.12 359.14 85.12 358.27 84.69 357.84 83.82 357.19 82.96 356.97 81.88 356.76 80.79 356.76 79.71 356.76 77.33 357.19 74.96 357.62 73.23 358.06 71.28 358.06 71.28 358.06 71.28"/>
    <polygon class="cls-1" points="447.16 199.73 447.16 199.73 451.05 199.08 459.7 197.78 464.89 197.35 469.87 197.13 474.19 197.13 475.92 197.13 477.43 197.57 477.43 197.57 478.73 198 480.25 198.65 481.98 199.51 483.49 200.59 485.22 202.11 486.95 203.41 488.46 204.92 489.98 206.43 491.71 208.16 492.79 209.68 494.09 211.41 494.95 212.92 495.6 214.43 496.03 215.95 496.03 217.25 496.03 217.89 495.82 218.33 495.82 218.33 495.38 218.76 495.17 219.19 494.52 219.62 493.87 219.84 492.36 220.27 490.63 220.27 488.46 220.06 486.3 219.62 481.54 218.54 476.57 217.25 472.24 215.95 468.78 214.87 467.49 214.43 466.62 214.43 466.62 214.43 443.48 214.43 447.16 199.73 447.16 199.73"/>
    <polygon class="cls-2" points="447.16 199.73 447.16 199.73 451.05 199.08 459.7 197.78 464.89 197.35 469.87 197.13 474.19 197.13 475.92 197.13 477.43 197.57 477.43 197.57 478.73 198 480.25 198.65 481.98 199.51 483.49 200.59 485.22 202.11 486.95 203.41 488.46 204.92 489.98 206.43 491.71 208.16 492.79 209.68 494.09 211.41 494.95 212.92 495.6 214.43 496.03 215.95 496.03 217.25 496.03 217.89 495.82 218.33 495.82 218.33 495.38 218.76 495.17 219.19 494.52 219.62 493.87 219.84 492.36 220.27 490.63 220.27 488.46 220.06 486.3 219.62 481.54 218.54 476.57 217.25 472.24 215.95 468.78 214.87 467.49 214.43 466.62 214.43 466.62 214.43 443.48 214.43 447.16 199.73 447.16 199.73"/>
    <polygon class="cls-1" points="147.84 129.67 169.9 144.15 201.48 138.1 201.48 138.1 197.15 115.18 197.15 115.18 196.72 113.66 196.72 113.66 193.69 98.09 164.06 85.12 153.03 79.93 153.03 79.93 153.9 90.53 153.9 90.53 154.33 94.85 154.33 98.96 154.33 102.85 153.9 106.53 153.47 109.77 152.82 113.02 152.39 116.04 151.74 118.85 150.44 123.61 148.93 126.86 148.06 128.8 147.84 129.67 147.84 129.67 147.84 129.67"/>
    <polygon class="cls-2" points="147.84 129.67 169.9 144.15 201.48 138.1 201.48 138.1 197.15 115.18 197.15 115.18 196.72 113.66 196.72 113.66 193.69 98.09 164.06 85.12 153.03 79.93 153.03 79.93 153.9 90.53 153.9 90.53 154.33 94.85 154.33 98.96 154.33 102.85 153.9 106.53 153.47 109.77 152.82 113.02 152.39 116.04 151.74 118.85 150.44 123.61 148.93 126.86 148.06 128.8 147.84 129.67 147.84 129.67 147.84 129.67"/>
    <polygon class="cls-1" points="156.28 90.96 156.28 90.96 157.79 93.12 159.31 95.28 161.47 97.01 163.85 98.96 166.44 100.69 169.25 102.42 172.28 104.36 175.31 105.88 181.37 108.69 187.21 111.5 192.61 113.45 197.15 114.96 197.15 114.96 196.5 113.45 196.5 113.45 193.69 98.09 164.06 85.34 164.06 85.34 161.69 85.34 159.74 85.34 158.01 85.77 156.71 86.42 156.28 86.63 155.63 87.28 155.63 87.71 155.41 88.15 155.41 88.8 155.63 89.44 155.63 90.09 156.28 90.96 156.28 90.96 156.28 90.96"/>
    <polygon class="cls-2" points="156.28 90.96 156.28 90.96 157.79 93.12 159.31 95.28 161.47 97.01 163.85 98.96 166.44 100.69 169.25 102.42 172.28 104.36 175.31 105.88 181.37 108.69 187.21 111.5 192.61 113.45 197.15 114.96 197.15 114.96 196.5 113.45 196.5 113.45 193.69 98.09 164.06 85.34 164.06 85.34 161.69 85.34 159.74 85.34 158.01 85.77 156.71 86.42 156.28 86.63 155.63 87.28 155.63 87.71 155.41 88.15 155.41 88.8 155.63 89.44 155.63 90.09 156.28 90.96 156.28 90.96 156.28 90.96"/>
    <polygon class="cls-1" points="204.72 96.36 204.72 96.36 202.78 97.01 200.4 97.44 197.37 98.31 193.48 98.96 189.37 99.61 184.61 100.04 179.85 100.04 177.47 100.04 175.09 100.04 172.5 99.61 169.9 99.17 167.74 98.74 165.36 98.09 162.98 97.23 160.82 96.36 158.66 95.07 156.71 93.77 154.98 92.25 153.25 90.53 151.74 88.58 150.44 86.42 149.14 83.82 148.28 81.23 148.28 81.23 146.55 75.82 144.82 70.42 141.57 60.9 140.49 56.36 139.41 52.25 138.76 48.14 138.33 46.41 138.33 44.47 138.11 42.52 138.33 41.01 138.76 39.27 138.98 37.55 139.63 36.25 140.28 34.73 141.14 33 142.01 31.49 143.3 30.19 144.6 28.9 146.33 27.6 148.06 26.3 150.01 25.22 152.39 24.14 154.76 23.06 157.58 21.98 157.58 21.98 162.98 20.03 167.74 18.95 172.28 18.08 176.61 17.43 180.07 17.43 183.53 17.43 186.56 17.87 189.15 18.52 191.53 19.6 193.69 20.68 195.64 21.98 197.37 23.49 198.88 25 199.97 26.73 201.26 28.46 202.34 30.19 202.34 30.19 203.43 32.36 204.51 35.6 205.59 39.49 206.67 43.82 207.75 48.79 208.62 53.98 209.48 59.39 210.13 65.01 210.56 70.42 210.99 75.82 210.99 80.79 210.35 85.34 210.13 87.5 209.7 89.23 209.05 91.17 208.62 92.47 207.75 93.98 207.1 94.85 206.02 95.72 204.72 96.36 204.72 96.36 204.72 96.36"/>
    <polygon class="cls-2" points="204.72 96.36 204.72 96.36 202.78 97.01 200.4 97.44 197.37 98.31 193.48 98.96 189.37 99.61 184.61 100.04 179.85 100.04 177.47 100.04 175.09 100.04 172.5 99.61 169.9 99.17 167.74 98.74 165.36 98.09 162.98 97.23 160.82 96.36 158.66 95.07 156.71 93.77 154.98 92.25 153.25 90.53 151.74 88.58 150.44 86.42 149.14 83.82 148.28 81.23 148.28 81.23 146.55 75.82 144.82 70.42 141.57 60.9 140.49 56.36 139.41 52.25 138.76 48.14 138.33 46.41 138.33 44.47 138.11 42.52 138.33 41.01 138.76 39.27 138.98 37.55 139.63 36.25 140.28 34.73 141.14 33 142.01 31.49 143.3 30.19 144.6 28.9 146.33 27.6 148.06 26.3 150.01 25.22 152.39 24.14 154.76 23.06 157.58 21.98 157.58 21.98 162.98 20.03 167.74 18.95 172.28 18.08 176.61 17.43 180.07 17.43 183.53 17.43 186.56 17.87 189.15 18.52 191.53 19.6 193.69 20.68 195.64 21.98 197.37 23.49 198.88 25 199.97 26.73 201.26 28.46 202.34 30.19 202.34 30.19 203.43 32.36 204.51 35.6 205.59 39.49 206.67 43.82 207.75 48.79 208.62 53.98 209.48 59.39 210.13 65.01 210.56 70.42 210.99 75.82 210.99 80.79 210.35 85.34 210.13 87.5 209.7 89.23 209.05 91.17 208.62 92.47 207.75 93.98 207.1 94.85 206.02 95.72 204.72 96.36 204.72 96.36 204.72 96.36"/>
    <polygon class="cls-3" points="200.61 27.6 200.61 27.6 199.97 33 199.1 38.41 198.24 44.68 197.59 47.92 196.94 50.95 195.86 53.76 194.99 56.36 194.13 58.3 193.69 59.17 192.83 59.82 192.4 60.47 191.75 60.9 190.88 60.9 190.45 60.9 190.45 60.9 187.85 60.47 185.04 60.03 182.88 60.03 181.8 60.03 180.93 60.47 180.07 60.68 179.2 61.33 178.77 61.98 178.12 62.85 177.69 64.14 177.69 65.44 177.47 66.95 177.69 68.69 177.69 68.69 178.12 70.85 178.34 72.79 179.64 76.69 180.5 80.79 180.72 82.52 180.72 84.47 180.72 85.98 180.07 87.5 179.64 88.36 179.2 89.01 178.56 89.66 177.69 90.31 176.82 90.74 175.74 91.39 173.36 92.25 170.34 92.9 166.44 93.34 166.44 93.34 164.5 93.34 162.34 93.12 159.96 92.47 157.79 91.61 155.63 90.31 153.25 88.8 151.09 87.28 148.71 85.34 146.33 83.39 144.17 81.01 142.01 78.63 139.84 76.25 137.68 73.44 135.73 70.63 131.84 64.79 128.16 58.95 125.14 53.12 122.33 47.49 120.16 42.09 119.3 39.71 118.65 37.33 118.22 34.95 117.78 33 117.78 31.06 117.78 29.33 118 28.03 118.22 26.73 118.22 26.73 119.3 25.44 120.38 23.92 122.54 21.33 125.14 18.73 127.95 16.35 131.19 14.19 134.65 12.03 138.33 10.08 142.22 8.14 146.12 6.62 150.44 5.33 154.55 4.24 158.87 3.16 163.2 2.3 167.53 1.65 171.63 1.22 175.74 1 179.64 1 183.53 1.22 186.99 1.43 190.45 2.3 193.69 2.95 196.29 4.03 198.88 5.11 199.97 6.19 201.05 6.62 201.91 7.49 202.78 8.57 203.43 9.43 204.07 10.52 204.51 11.6 204.94 12.46 205.16 13.97 205.37 15.06 205.16 16.35 204.94 17.87 204.51 19.16 204.07 20.89 203.64 22.41 202.78 23.92 201.69 25.65 200.61 27.6 200.61 27.6 200.61 27.6"/>
    <polygon class="cls-2" points="200.61 27.6 200.61 27.6 199.97 33 199.1 38.41 198.24 44.68 197.59 47.92 196.94 50.95 195.86 53.76 194.99 56.36 194.13 58.3 193.69 59.17 192.83 59.82 192.4 60.47 191.75 60.9 190.88 60.9 190.45 60.9 190.45 60.9 187.85 60.47 185.04 60.03 182.88 60.03 181.8 60.03 180.93 60.47 180.07 60.68 179.2 61.33 178.77 61.98 178.12 62.85 177.69 64.14 177.69 65.44 177.47 66.95 177.69 68.69 177.69 68.69 178.12 70.85 178.34 72.79 179.64 76.69 180.5 80.79 180.72 82.52 180.72 84.47 180.72 85.98 180.07 87.5 179.64 88.36 179.2 89.01 178.56 89.66 177.69 90.31 176.82 90.74 175.74 91.39 173.36 92.25 170.34 92.9 166.44 93.34 166.44 93.34 164.5 93.34 162.34 93.12 159.96 92.47 157.79 91.61 155.63 90.31 153.25 88.8 151.09 87.28 148.71 85.34 146.33 83.39 144.17 81.01 142.01 78.63 139.84 76.25 137.68 73.44 135.73 70.63 131.84 64.79 128.16 58.95 125.14 53.12 122.33 47.49 120.16 42.09 119.3 39.71 118.65 37.33 118.22 34.95 117.78 33 117.78 31.06 117.78 29.33 118 28.03 118.22 26.73 118.22 26.73 119.3 25.44 120.38 23.92 122.54 21.33 125.14 18.73 127.95 16.35 131.19 14.19 134.65 12.03 138.33 10.08 142.22 8.14 146.12 6.62 150.44 5.33 154.55 4.24 158.87 3.16 163.2 2.3 167.53 1.65 171.63 1.22 175.74 1 179.64 1 183.53 1.22 186.99 1.43 190.45 2.3 193.69 2.95 196.29 4.03 198.88 5.11 199.97 6.19 201.05 6.62 201.91 7.49 202.78 8.57 203.43 9.43 204.07 10.52 204.51 11.6 204.94 12.46 205.16 13.97 205.37 15.06 205.16 16.35 204.94 17.87 204.51 19.16 204.07 20.89 203.64 22.41 202.78 23.92 201.69 25.65 200.61 27.6 200.61 27.6 200.61 27.6"/>
    <polygon class="cls-1" points="193.69 122.31 193.69 122.31 187.64 119.94 174.88 114.53 167.96 111.72 161.69 109.56 158.87 108.47 156.71 108.04 154.76 107.61 154.33 107.61 153.68 107.83 153.68 107.83 153.03 108.04 152.17 108.69 151.31 109.56 150.44 110.42 148.93 112.58 147.63 115.18 146.33 117.56 145.47 119.72 144.6 121.67 206.45 135.5 206.45 135.5 205.37 133.99 204.51 132.26 202.99 130.31 201.05 127.94 198.88 125.77 197.8 124.69 196.29 123.83 194.99 122.96 193.69 122.31 193.69 122.31 193.69 122.31"/>
    <polygon class="cls-2" points="193.69 122.31 193.69 122.31 187.64 119.94 174.88 114.53 167.96 111.72 161.69 109.56 158.87 108.47 156.71 108.04 154.76 107.61 154.33 107.61 153.68 107.83 153.68 107.83 153.03 108.04 152.17 108.69 151.31 109.56 150.44 110.42 148.93 112.58 147.63 115.18 146.33 117.56 145.47 119.72 144.6 121.67 206.45 135.5 206.45 135.5 205.37 133.99 204.51 132.26 202.99 130.31 201.05 127.94 198.88 125.77 197.8 124.69 196.29 123.83 194.99 122.96 193.69 122.31 193.69 122.31 193.69 122.31"/>
    <polygon class="cls-5" points="145.68 121.45 146.98 121.45 150.01 121.45 153.9 121.88 158.44 122.53 163.2 123.61 168.39 124.69 179.2 127.5 189.37 130.53 198.02 133.13 206.45 135.72 207.75 139.61 208.4 141.56 216.62 144.37 245.6 154.75 260.74 159.94 275.87 164.91 290.36 169.89 303.99 174 316.53 177.67 327.35 180.7 332.1 181.78 336 182.65 339.46 183.29 342.48 183.51 353.51 184.38 366.49 185.67 380.76 187.62 395.25 189.57 409.96 191.94 423.58 194.32 436.13 197.13 441.97 198.22 446.94 199.73 447.16 200.38 447.81 202.11 448.24 203.41 448.45 204.7 448.45 206 448.24 207.3 447.59 209.24 446.73 210.76 445.86 212.06 444.99 212.92 443.7 214 443.26 214.65 223.1 214 224.4 224.6 227.21 257.47 230.24 292.5 91.62 292.5 93.99 276.71 96.59 260.93 99.4 245.57 102.21 230.65 103.08 226.11 100.27 225.9 97.89 225.46 95.72 224.81 93.56 224.16 91.4 223.52 89.67 222.65 87.94 221.57 87.29 220.71 86.86 219.84 86.21 218.33 85.99 216.6 85.78 214.65 85.56 212.49 85.78 207.3 86.21 201.24 87.07 194.76 88.16 187.62 89.45 180.48 90.97 173.13 92.48 166 94.21 159.07 95.94 152.8 97.67 146.97 99.4 142.21 101.13 138.32 101.78 136.8 102.21 135.72 103.29 134.64 104.16 133.78 105.24 132.91 106.32 132.04 109.13 130.53 111.94 129.02 115.41 127.5 118.86 126.64 122.54 125.56 126.22 124.69 133.14 123.18 138.98 122.31 144.6 121.67 144.6 121.88 144.6 121.67 145.68 121.45"/>
    <polygon class="cls-2" points="145.68 121.45 146.98 121.45 150.01 121.45 153.9 121.88 158.44 122.53 163.2 123.61 168.39 124.69 179.2 127.5 189.37 130.53 198.02 133.13 206.45 135.72 207.75 139.61 208.4 141.56 216.62 144.37 245.6 154.75 260.74 159.94 275.87 164.91 290.36 169.89 303.99 174 316.53 177.67 327.35 180.7 332.1 181.78 336 182.65 339.46 183.29 342.48 183.51 353.51 184.38 366.49 185.67 380.76 187.62 395.25 189.57 409.96 191.94 423.58 194.32 436.13 197.13 441.97 198.22 446.94 199.73 447.16 200.38 447.81 202.11 448.24 203.41 448.45 204.7 448.45 206 448.24 207.3 447.59 209.24 446.73 210.76 445.86 212.06 444.99 212.92 443.7 214 443.26 214.65 223.1 214 224.4 224.6 227.21 257.47 230.24 292.5 91.62 292.5 93.99 276.71 96.59 260.93 99.4 245.57 102.21 230.65 103.08 226.11 100.27 225.9 97.89 225.46 95.72 224.81 93.56 224.16 91.4 223.52 89.67 222.65 87.94 221.57 87.29 220.71 86.86 219.84 86.21 218.33 85.99 216.6 85.78 214.65 85.56 212.49 85.78 207.3 86.21 201.24 87.07 194.76 88.16 187.62 89.45 180.48 90.97 173.13 92.48 166 94.21 159.07 95.94 152.8 97.67 146.97 99.4 142.21 101.13 138.32 101.78 136.8 102.21 135.72 103.29 134.64 104.16 133.78 105.24 132.91 106.32 132.04 109.13 130.53 111.94 129.02 115.41 127.5 118.86 126.64 122.54 125.56 126.22 124.69 133.14 123.18 138.98 122.31 144.6 121.67 144.6 121.88 144.6 121.67 145.68 121.45"/>
    <polygon class="cls-6" points="66.75 271.52 44.25 271.52 44.25 271.52 41.66 271.52 39.49 271.74 36.9 271.95 34.74 272.39 32.36 272.82 30.2 273.25 28.03 273.69 25.87 274.33 23.92 275.2 21.76 276.06 19.82 276.93 18.09 277.79 16.36 278.88 14.63 279.74 12.89 281.04 11.38 282.12 9.87 283.42 8.57 284.71 7.49 286.01 6.41 287.52 5.33 288.82 4.24 290.34 3.6 291.85 2.73 293.36 2.08 294.88 1.65 296.61 1.22 298.12 1 299.85 1 301.36 1 303.09 1.22 304.82 1.43 306.55 25.87 424.84 25.87 424.84 26.52 427.22 27.38 429.6 28.68 431.76 29.98 433.92 31.93 435.87 33.66 437.6 35.82 439.33 38.2 441.06 40.58 442.36 43.6 443.65 46.42 444.74 49.44 445.6 52.47 446.46 55.72 446.9 59.18 447.11 62.42 447.33 129.68 447.33 66.75 271.52 66.75 271.52"/>
    <polygon class="cls-2" points="66.75 271.52 44.25 271.52 44.25 271.52 41.66 271.52 39.49 271.74 36.9 271.95 34.74 272.39 32.36 272.82 30.2 273.25 28.03 273.69 25.87 274.33 23.92 275.2 21.76 276.06 19.82 276.93 18.09 277.79 16.36 278.88 14.63 279.74 12.89 281.04 11.38 282.12 9.87 283.42 8.57 284.71 7.49 286.01 6.41 287.52 5.33 288.82 4.24 290.34 3.6 291.85 2.73 293.36 2.08 294.88 1.65 296.61 1.22 298.12 1 299.85 1 301.36 1 303.09 1.22 304.82 1.43 306.55 25.87 424.84 25.87 424.84 26.52 427.22 27.38 429.6 28.68 431.76 29.98 433.92 31.93 435.87 33.66 437.6 35.82 439.33 38.2 441.06 40.58 442.36 43.6 443.65 46.42 444.74 49.44 445.6 52.47 446.46 55.72 446.9 59.18 447.11 62.42 447.33 129.68 447.33 66.75 271.52 66.75 271.52"/>
    <polygon class="cls-6" points="852.66 271.52 875.15 271.52 875.15 271.52 877.74 271.52 880.12 271.74 882.5 271.95 884.66 272.39 887.04 272.82 889.21 273.25 891.37 273.9 893.53 274.33 895.69 275.2 897.64 276.06 899.59 276.93 901.53 277.79 903.05 278.88 904.78 279.96 906.51 281.04 908.02 282.12 909.32 283.42 910.83 284.71 911.91 286.01 913.21 287.52 914.08 288.82 915.16 290.34 916.02 291.85 916.67 293.36 917.32 294.88 917.75 296.61 918.18 298.12 918.18 299.85 918.4 301.36 918.4 303.09 918.18 304.82 917.97 306.55 893.53 425.06 893.53 425.06 892.88 427.44 892.02 429.6 890.72 431.98 889.42 433.92 887.48 435.87 885.75 437.6 883.58 439.33 881.2 441.06 878.82 442.36 875.8 443.65 872.99 444.74 869.96 445.82 867.15 446.46 863.69 446.9 860.23 447.11 856.98 447.33 789.94 447.33 852.66 271.52 852.66 271.52"/>
    <polygon class="cls-2" points="852.66 271.52 875.15 271.52 875.15 271.52 877.74 271.52 880.12 271.74 882.5 271.95 884.66 272.39 887.04 272.82 889.21 273.25 891.37 273.9 893.53 274.33 895.69 275.2 897.64 276.06 899.59 276.93 901.53 277.79 903.05 278.88 904.78 279.96 906.51 281.04 908.02 282.12 909.32 283.42 910.83 284.71 911.91 286.01 913.21 287.52 914.08 288.82 915.16 290.34 916.02 291.85 916.67 293.36 917.32 294.88 917.75 296.61 918.18 298.12 918.18 299.85 918.4 301.36 918.4 303.09 918.18 304.82 917.97 306.55 893.53 425.06 893.53 425.06 892.88 427.44 892.02 429.6 890.72 431.98 889.42 433.92 887.48 435.87 885.75 437.6 883.58 439.33 881.2 441.06 878.82 442.36 875.8 443.65 872.99 444.74 869.96 445.82 867.15 446.46 863.69 446.9 860.23 447.11 856.98 447.33 789.94 447.33 852.66 271.52 852.66 271.52"/>
    <polygon class="cls-7" points="804.43 447.33 117.14 447.33 117.14 447.33 113.67 447.11 110.43 446.9 107.19 446.46 104.16 445.82 101.13 445.17 98.54 444.3 95.94 443.44 93.35 442.14 91.18 440.84 89.24 439.55 87.29 438.03 85.78 436.52 84.48 434.79 83.61 433.06 82.75 431.11 82.53 429.38 57.01 234.76 57.01 234.76 57.01 232.6 57.23 230.44 57.88 228.49 58.96 226.54 60.47 224.81 62.2 223.08 63.93 221.57 66.31 220.06 68.69 218.54 71.5 217.46 74.53 216.38 77.56 215.51 80.8 214.87 84.26 214.22 87.94 213.78 91.62 213.78 828.22 213.78 828.22 213.78 832.11 213.78 835.57 214.22 839.03 214.87 842.49 215.51 845.52 216.38 848.33 217.46 851.14 218.54 853.52 220.06 855.9 221.35 857.63 223.08 859.36 224.81 860.87 226.54 861.96 228.49 862.6 230.44 863.04 232.6 863.04 234.54 839.03 429.17 839.03 429.17 838.6 431.11 837.95 432.84 836.87 434.79 835.57 436.3 834.06 438.03 832.33 439.33 830.16 440.84 828 442.14 825.62 443.44 823.03 444.3 820.22 445.17 817.19 445.82 814.16 446.46 810.92 446.9 807.67 447.11 804.43 447.33 804.43 447.33 804.43 447.33"/>
    <polygon class="cls-2" points="804.43 447.33 117.14 447.33 117.14 447.33 113.67 447.11 110.43 446.9 107.19 446.46 104.16 445.82 101.13 445.17 98.54 444.3 95.94 443.44 93.35 442.14 91.18 440.84 89.24 439.55 87.29 438.03 85.78 436.52 84.48 434.79 83.61 433.06 82.75 431.11 82.53 429.38 57.01 234.76 57.01 234.76 57.01 232.6 57.23 230.44 57.88 228.49 58.96 226.54 60.47 224.81 62.2 223.08 63.93 221.57 66.31 220.06 68.69 218.54 71.5 217.46 74.53 216.38 77.56 215.51 80.8 214.87 84.26 214.22 87.94 213.78 91.62 213.78 828.22 213.78 828.22 213.78 832.11 213.78 835.57 214.22 839.03 214.87 842.49 215.51 845.52 216.38 848.33 217.46 851.14 218.54 853.52 220.06 855.9 221.35 857.63 223.08 859.36 224.81 860.87 226.54 861.96 228.49 862.6 230.44 863.04 232.6 863.04 234.54 839.03 429.17 839.03 429.17 838.6 431.11 837.95 432.84 836.87 434.79 835.57 436.3 834.06 438.03 832.33 439.33 830.16 440.84 828 442.14 825.62 443.44 823.03 444.3 820.22 445.17 817.19 445.82 814.16 446.46 810.92 446.9 807.67 447.11 804.43 447.33 804.43 447.33 804.43 447.33"/>
    <polygon class="cls-5" points="129.68 447.33 124.49 487.33 124.49 487.33 124.49 488.42 124.7 489.28 125.35 490.15 126.22 490.8 127.08 491.44 127.95 491.88 129.25 492.09 130.54 492.09 130.54 492.09 130.54 492.09 131.41 492.09 132.27 491.88 133.14 491.66 133.79 491.44 134.44 490.8 134.87 490.36 135.52 489.71 135.73 489.28 151.31 447.33 129.68 447.33 129.68 447.33"/>
    <polygon class="cls-2" points="129.68 447.33 124.49 487.33 124.49 487.33 124.49 488.42 124.7 489.28 125.35 490.15 126.22 490.8 127.08 491.44 127.95 491.88 129.25 492.09 130.54 492.09 130.54 492.09 130.54 492.09 131.41 492.09 132.27 491.88 133.14 491.66 133.79 491.44 134.44 490.8 134.87 490.36 135.52 489.71 135.73 489.28 151.31 447.33 129.68 447.33 129.68 447.33"/>
    <polygon class="cls-5" points="784.75 447.33 789.94 487.55 789.94 487.55 789.72 488.42 789.72 489.28 789.07 490.15 788.21 490.8 787.34 491.44 786.26 491.88 784.97 492.09 783.88 492.09 783.88 492.09 783.88 492.09 783.02 492.09 781.94 491.88 781.07 491.66 780.64 491.44 779.99 490.8 779.34 490.36 778.91 489.71 778.48 489.28 763.12 447.33 784.75 447.33 784.75 447.33"/>
    <polygon class="cls-2" points="784.75 447.33 789.94 487.55 789.94 487.55 789.72 488.42 789.72 489.28 789.07 490.15 788.21 490.8 787.34 491.44 786.26 491.88 784.97 492.09 783.88 492.09 783.88 492.09 783.88 492.09 783.02 492.09 781.94 491.88 781.07 491.66 780.64 491.44 779.99 490.8 779.34 490.36 778.91 489.71 778.48 489.28 763.12 447.33 784.75 447.33 784.75 447.33"/>
  </g>
</svg>
